<?xml version="1.0" encoding="utf-8"?>
<!-- Generator: Adobe Illustrator 24.0.1, SVG Export Plug-In . SVG Version: 6.00 Build 0)  -->
<svg version="1.1" xmlns="http://www.w3.org/2000/svg" xmlns:xlink="http://www.w3.org/1999/xlink" x="0px" y="0px"
	 viewBox="0 0 5000 5000" style="enable-background:new 0 0 5000 5000;" xml:space="preserve">
<style type="text/css">
	.st0{fill:#EF6551;}
	.st1{fill:#FBD67C;}
	.st2{fill:none;stroke:#000000;stroke-width:16;stroke-miterlimit:10;}
	.st3{fill:#5D5DA3;stroke:#000000;stroke-width:16;stroke-miterlimit:10;}
	.st4{fill:#A3E6EE;stroke:#000000;stroke-width:16;stroke-miterlimit:10;}
	.st5{fill:none;stroke:#000000;stroke-width:16;stroke-linecap:round;stroke-linejoin:round;stroke-miterlimit:10;}
	.st6{fill:#55C3B4;stroke:#000000;stroke-width:16;stroke-miterlimit:10;}
	.st7{fill:#EF72A4;stroke:#000000;stroke-width:16;stroke-miterlimit:10;}
	.st8{fill:#55C3B4;stroke:#000000;stroke-width:16;stroke-linecap:round;stroke-linejoin:round;stroke-miterlimit:10;}
	.st9{fill:#EF72A4;stroke:#000000;stroke-width:16;stroke-linecap:round;stroke-linejoin:round;stroke-miterlimit:10;}
	.st10{fill:#A3E6EE;stroke:#000000;stroke-width:16;stroke-linecap:round;stroke-linejoin:round;stroke-miterlimit:10;}
	.st11{fill:#B1A6C5;stroke:#000000;stroke-width:16;stroke-miterlimit:10;}
	.st12{fill:#B47D69;stroke:#000000;stroke-width:16;stroke-miterlimit:10;}
	.st13{fill:#EF72A4;}
	.st14{fill:none;stroke:#000000;stroke-width:40;stroke-linejoin:round;stroke-miterlimit:10;}
	.st15{fill:#B47D69;}
	.st16{fill:none;stroke:#000000;stroke-width:16;stroke-linecap:round;stroke-miterlimit:10;}
	.st17{fill:#F8D9C6;stroke:#000000;stroke-width:16;stroke-miterlimit:10;}
	.st18{fill:#B1A6C5;stroke:#000000;stroke-width:16;stroke-linecap:round;stroke-linejoin:round;stroke-miterlimit:10;}
	.st19{fill:#F8D9C6;}
	.st20{fill:#EF6551;stroke:#000000;stroke-width:16;stroke-miterlimit:10;}
	.st21{fill:#F8D9C6;stroke:#000000;stroke-width:16;stroke-linecap:round;stroke-linejoin:round;stroke-miterlimit:10;}
	.st22{fill:#FBD67C;stroke:#000000;stroke-width:16;stroke-linecap:round;stroke-linejoin:round;stroke-miterlimit:10;}
	.st23{fill:#EF6551;stroke:#000000;stroke-width:16;stroke-linecap:round;stroke-linejoin:round;stroke-miterlimit:10;}
	.st24{fill:#5D5DA3;stroke:#000000;stroke-width:16;stroke-linecap:round;stroke-linejoin:round;stroke-miterlimit:10;}
	.st25{fill:#FBD67C;stroke:#000000;stroke-width:16;stroke-linejoin:round;stroke-miterlimit:10;}
</style>
<g id="Слой_3">
	<path class="st0" d="M0,899l4173,1c0,0,333,35,333,349c0,368.16-359,371-359,371l-3350,2c-120-22-565,175-540,597
		c29.31,494.71,410,581,544,600h3345c141,27,175,210,0,240l-3370-4c-254,4-754-279-759-836c-5.39-600.98,561-830,755-836l3374-4
		c173-24,141-226,0-240H0V899z"/>
	<path class="st1" d="M5001,4259l-4173-1c0,0-333-35-333-349c0-368.16,359-371,359-371l3350-2c120,22,565-175,540-597
		c-29.31-494.71-410-581-544-600H855c-141-27-175-210,0-240l3370,4c254-4,754,279,759,836c5.4,600.98-561,830-755,836l-3374,4
		c-173,24-141,226,0,240h4146V4259z"/>
</g>
<g id="Слой_2">
	<path class="st2" d="M5000,4739H857c-463.92,0-840-376.08-840-840s376.08-840,840-840h3289c66.27,0,120-53.73,120-120
		s-53.73-120-120-120H857c-331.37,0-600-268.63-600-600s268.63-600,600-600h3289c198.82,0,360-161.18,360-360s-161.18-360-360-360H0
		"/>
	<path class="st2" d="M4146,2099c463.92,0,840-376.08,840-840s-376.08-840-840-840H0"/>
	<path class="st2" d="M857,3059c-463.92,0-840-376.08-840-840s376.08-840,840-840h3289c66.27,0,120-53.73,120-120
		s-53.73-120-120-120H0"/>
	<path class="st2" d="M5000,4019H857c-66.27,0-120-53.73-120-120s53.73-120,120-120h3289c463.92,0,840-376.08,840-840
		s-376.08-840-840-840H857c-66.27,0-120,53.73-120,120s53.73,120,120,120h3289c331.37,0,600,268.63,600,600s-268.63,600-600,600H857
		c-198.82,0-360,161.18-360,360c0,198.82,161.18,360,360,360h4143"/>
	<path class="st2" d="M5000,4499H857c-331.37,0-600-268.63-600-600s268.63-600,600-600h3289c198.82,0,360-161.18,360-360
		s-161.18-360-360-360H857c-198.82,0-360-161.18-360-360s161.18-360,360-360h3289c331.37,0,600-268.63,600-600s-268.63-600-600-600
		H0"/>
</g>
<g id="Слой_4">
	
		<ellipse transform="matrix(0.3401 -0.9404 0.9404 0.3401 -2649.3733 3473.8433)" class="st3" cx="1150.59" cy="3624.72" rx="707.1" ry="326.12"/>
	<path class="st4" d="M515.35,4392.29c-56.2-112.17-81-283.58-106.18-441.59c-62.69-393.3,23.34-733.94,192.14-760.84
		s356.46,270.12,419.15,663.41c31.34,196.65,41.33,508.04,6.56,645.73H827.45C616.64,4489.75,515.35,4392.29,515.35,4392.29z"/>
	<g>
		<line class="st5" x1="604.77" y1="3273.23" x2="832.82" y2="4486.91"/>
		<line class="st5" x1="658.22" y1="3557.68" x2="777.41" y2="3350.88"/>
		<line class="st5" x1="658.22" y1="3557.68" x2="474.9" y2="3423.22"/>
		<line class="st5" x1="708.38" y1="3824.67" x2="857.79" y2="3565.46"/>
		<line class="st5" x1="708.38" y1="3824.67" x2="478.6" y2="3656.13"/>
		<line class="st5" x1="758.55" y1="4091.66" x2="945.06" y2="3768.08"/>
		<line class="st5" x1="758.55" y1="4091.66" x2="471.71" y2="3881.26"/>
		<line class="st5" x1="807.92" y1="4354.38" x2="994.42" y2="4030.8"/>
		<line class="st5" x1="807.92" y1="4354.38" x2="521.08" y2="4143.99"/>
	</g>
	<path class="st6" d="M933.32,4499c-13.46-131.9,13.03-431.93,75.07-605.31c122.72-342.93,352.67-574.25,513.61-516.66
		c160.94,57.59,191.92,382.28,69.2,725.22c-56.55,158.03-138.19,303.47-223.04,396.75H933.32z"/>
	<g>
		<line class="st5" x1="1493.14" y1="3487.11" x2="1127.15" y2="4499"/>
		<line class="st5" x1="1399.43" y1="3746.19" x2="1605.08" y2="3631.55"/>
		<line class="st5" x1="1399.43" y1="3746.19" x2="1306.21" y2="3550.01"/>
		<line class="st5" x1="1311.47" y1="3989.37" x2="1569.24" y2="3845.67"/>
		<line class="st5" x1="1311.47" y1="3989.37" x2="1194.63" y2="3743.47"/>
		<line class="st5" x1="1223.52" y1="4232.55" x2="1545.29" y2="4053.16"/>
		<line class="st5" x1="1223.52" y1="4232.55" x2="1077.66" y2="3925.58"/>
		<line class="st5" x1="1136.97" y1="4471.84" x2="1458.74" y2="4292.46"/>
		<line class="st5" x1="1136.97" y1="4471.84" x2="991.1" y2="4164.88"/>
	</g>
</g>
<g id="Слой_5">
	<path class="st7" d="M4967.06,3277.31c0,480.44-315.82,811.3-315.82,811.3s-315.82-330.86-315.82-811.3
		c0-219.08,141.4-396.68,315.82-396.68C4825.66,2880.63,4967.06,3058.23,4967.06,3277.31z"/>
	<path class="st4" d="M4632.89,3876.15v376.53h36.68v-376.53C4664.38,3853.14,4639.61,3852.34,4632.89,3876.15z"/>
	<circle class="st3" cx="4335.41" cy="3653.85" r="434.76"/>
	<path class="st4" d="M4308.97,3973.66v279.01h36.68v-279.01C4340.46,3956.61,4315.69,3956.02,4308.97,3973.66z"/>
</g>
<g id="Слой_6">
	<path class="st8" d="M942.87,1080.41c0,0-408.81-89.29-405.79-323.37c1.84-142.87,169.01-24.63,169.01-24.63
		s-275.41-247.75-142.05-349.9c103.84-79.54,209.31,91.09,209.31,91.09s-155.4-363.47,8.77-402.1
		c157.99-37.17,194.47,271.96,194.47,271.96s13.3-231.43,194.63-200.71c259.61,43.98-0.16,474.14-0.16,474.14
		s115.4-170.86,212.96-69.82c119.17,123.42-166.17,311.83-166.17,311.83s88.67-71.06,94.19,8.6
		c11.63,167.84-322.17,212.9-322.17,212.9H942.87z"/>
	<path class="st3" d="M942.87,603.79V1139h46.99l0-535.21C983.21,571.08,951.48,569.94,942.87,603.79z"/>
	<path class="st9" d="M892.57,277.1c20.51,77.54,12.84,253.98,12.84,253.98s-93.92-149.57-114.43-227.11s-6.34-115.97,21.71-123.39
		C840.74,173.16,872.06,199.56,892.57,277.1z"/>
	<path class="st9" d="M1176.27,379.69c-31.66,57.87-144.31,154.29-144.31,154.29s20.46-146.86,52.12-204.73
		c31.66-57.87,65.53-70.77,90.99-56.84S1207.93,321.82,1176.27,379.69z"/>
	<path class="st9" d="M1276.35,733.76c-48.41,33.56-180.11,60.92-180.11,60.92s71.83-113.73,120.24-147.29s82.05-28.25,98.58-4.4
		C1331.59,666.84,1324.76,700.2,1276.35,733.76z"/>
	<path class="st9" d="M1183.19,976.45c-38.35,13.24-130.76,6.85-130.76,6.85s68.8-62.03,107.15-75.26
		c38.35-13.24,59.66-3.45,66.18,15.44C1232.28,942.37,1221.54,963.21,1183.19,976.45z"/>
	<path class="st9" d="M736.76,817.47c53.37,32.2,142.56,138.02,142.56,138.02S744.13,925.9,690.76,893.7
		c-53.37-32.2-65.38-62.73-52.68-83.78S683.39,785.26,736.76,817.47z"/>
	<path class="st9" d="M753.95,527.19c45.26,56.24,98.99,207.79,98.99,207.79s-136.56-84.89-181.82-141.13
		c-45.26-56.24-45.64-94.67-22.77-113.08C671.23,462.36,708.69,470.95,753.95,527.19z"/>
</g>
<g id="Слой_8">
	<path class="st8" d="M2737.96,2440.65c-96.61,96.42-376.9,221.76-376.9,221.76s125.9-280.04,222.51-376.46
		c96.61-96.42,171.56-102.1,214.19-59.38C2840.4,2269.29,2834.57,2344.23,2737.96,2440.65z"/>
	<path class="st9" d="M2222.89,2331.17c64.27,80.84,125.76,309.31,125.76,309.31s-208.73-111.41-273-192.25
		c-64.27-80.84-58.18-140.84-17.52-173.17C2098.79,2242.74,2158.62,2250.33,2222.89,2331.17z"/>
	<path class="st9" d="M2624.7,2153.08c-71.6,65.37-289.2,129.29-289.2,129.29s83.43-210.89,155.03-276.25
		c71.6-65.37,131.56-59.79,168.61-19.21C2696.19,2027.49,2696.29,2087.71,2624.7,2153.08z"/>
	<path class="st9" d="M3056.16,2848.82c-66.85,31.29-240.46,26.35-240.46,26.35s107.43-136.48,174.27-167.77
		c66.85-31.29,109.61-12.71,127.89,26.34C3136.13,2772.79,3123.01,2817.53,3056.16,2848.82z"/>
	<path class="st8" d="M2263.06,1814.46c34.92,65.71,63.14,227.85,63.14,227.85s-118.57-114.13-153.49-179.84
		s-29.28-103.93-4.33-117.18C2193.32,1732.03,2228.14,1748.75,2263.06,1814.46z"/>
	<path class="st10" d="M2509.85,1844.94c-38.3,63.8-162.68,171.57-162.68,171.57s36.66-160.44,74.97-224.24s73.95-78.67,98.18-64.13
		S2548.15,1781.14,2509.85,1844.94z"/>
</g>
<g id="Слой_7">
	<path class="st3" d="M2325.16,2002.12v1049.61h46.99V2002.12C2375.57,1953.17,2325.16,1951.46,2325.16,2002.12z"/>
	<path class="st9" d="M2564.84,1920.95c-56.68,59.01-217.67,142.87-217.67,142.87s77.3-164.25,133.97-223.26
		c56.68-59.01,99.11-65.68,122.22-43.48S2621.52,1861.94,2564.84,1920.95z"/>
	<path class="st8" d="M2663.47,2712.56c59.87,37.68,153.63,167.87,153.63,167.87s-157.94-28.22-217.81-65.89
		c-59.87-37.68-70.53-76.26-52.81-104.41S2603.6,2674.89,2663.47,2712.56z"/>
	<path class="st8" d="M3048.12,2766.09c-60.87,53-232.42,114.34-232.42,114.34s84.35-161.49,145.22-214.49
		c60.87-53,105.83-52.74,129.91-25.08C3114.91,2668.51,3108.99,2713.09,3048.12,2766.09z"/>
	<path class="st8" d="M2087.05,2393.18c102.03,59.09,266.76,269.23,266.76,269.23s-264.24-38.31-366.27-97.4
		s-122.4-122.26-94.92-169.71S1985.01,2334.09,2087.05,2393.18z"/>
	<path class="st8" d="M2149.8,2053.99c76.9,69.2,192.81,265.5,192.81,265.5s-207.4-94.63-284.3-163.83
		c-76.9-69.2-88.56-120.89-63.3-148.96C2020.27,1978.63,2072.9,1984.79,2149.8,2053.99z"/>
	<path class="st8" d="M2184.49,1876.25c64.32,42.48,163.71,186.01,163.71,186.01s-171.02-35.07-235.34-77.56
		c-64.32-42.48-75.17-84.52-55.39-114.46S2120.17,1833.77,2184.49,1876.25z"/>
	<path class="st10" d="M2763.75,2596.2c-122.43,52.46-421.92,64.44-421.92,64.44s215.27-208.55,337.7-261.01
		s192.47-30.38,215.72,23.9C2918.51,2477.82,2886.18,2543.75,2763.75,2596.2z"/>
	<path class="st9" d="M2915.81,2528.56c-20.06,43.49-95.64,119.5-95.64,119.5s8.77-106.83,28.83-150.31
		c20.06-43.49,43.4-54.77,61.85-46.26C2929.3,2460,2935.87,2485.07,2915.81,2528.56z"/>
	<path class="st10" d="M2653.59,2189.31c-86.02,60.57-309.03,128.01-309.03,128.01s138.66-187.22,224.69-247.79
		c86.02-60.57,140.86-59.08,164.15-26C2756.7,2076.61,2739.62,2128.74,2653.59,2189.31z"/>
	<path class="st8" d="M2754.56,2503.38c28.9,38.19,48.87,149.34,48.87,149.34s-101.55-49.4-130.45-87.59s-22.72-67.97-0.2-85.02
		S2725.65,2465.19,2754.56,2503.38z"/>
	<path class="st3" d="M2797.71,2539.11v512.75h35.97v-512.75C2828.59,2507.78,2804.3,2506.69,2797.71,2539.11z"/>
	<path class="st8" d="M2959.41,2564.42c-33.9,33.83-132.24,77.81-132.24,77.81s44.18-98.26,78.07-132.09s60.2-35.82,75.15-20.83
		C2995.35,2504.29,2993.31,2530.59,2959.41,2564.42z"/>
	<path class="st10" d="M2970.31,2607.06c-44.98,28-155.54,61.16-155.54,61.16s78.55-84.57,123.54-112.58
		c44.98-28,70.95-28.2,79.79-14C3026.93,2555.84,3015.29,2579.06,2970.31,2607.06z"/>
	<path class="st9" d="M2703.69,2553.68c40.46,27.84,105.68,115.18,105.68,115.18s-104.87-29.73-145.32-57.57
		c-40.46-27.84-48.49-52.38-37.55-68.28S2663.23,2525.83,2703.69,2553.68z"/>
</g>
<g id="Слой_9">
	<circle class="st9" cx="3604.2" cy="286.66" r="78.02"/>
	<circle class="st9" cx="3421.3" cy="286.66" r="78.02"/>
	<path class="st11" d="M3512.75,503.13c-37.69-2.81-62.74-24.46-82.49-41.02l-152.6-196.24c-45.99,7.37-79.27,33.88-104.74,72.16
		l225.78,290.96v97.76l-213.25,539.82c78.63,66.19,177.9,78.53,273.56,56.07c0,0,53.75-367.78,53.75-367.78l53.75,367.78
		c95.66,22.45,194.93,10.12,273.56-56.07l-213.25-539.82v-97.76l225.78-290.96c-29.71-36.94-65.45-63.46-104.74-72.16l-152.6,196.24
		C3575.49,478.67,3550.44,500.32,3512.75,503.13z"/>
	<circle class="st12" cx="3512.75" cy="376.61" r="89.48"/>
	<path class="st13" d="M3575.25,312.93c25.68,25.1,25.92,77.52,25.92,77.52s-12.09,10.27-49.4-11.27
		c-37.32-21.54-39.01-92.04-39.01-92.04S3544.43,282.81,3575.25,312.93z"/>
	<path class="st13" d="M3449.19,312.93c-25.67,25.1-25.92,77.52-25.92,77.52s12.09,10.27,49.4-11.27
		c37.32-21.54,39.01-92.04,39.01-92.04S3480,282.81,3449.19,312.93z"/>
	<circle class="st2" cx="3512.86" cy="376.61" r="89.48"/>
	<path class="st10" d="M3586.69,1326.63V1379h411.09c-32.35-57.34-86.97-93.2-169.28-102.36
		C3762.66,1326.09,3682.12,1342.89,3586.69,1326.63z"/>
	<path class="st10" d="M3438.82,1326.63V1379h-411.09c32.35-57.34,86.97-93.2,169.28-102.36
		C3262.84,1326.09,3343.38,1342.89,3438.82,1326.63z"/>
	<path class="st14" d="M3398.7,708.91c76.01,21.03,152.05,19.8,228.11,0"/>
	<path class="st5" d="M3512.75,287.13c2.11,68.27-27.25,103.4-88.06,105.4"/>
	<path class="st5" d="M3512.86,287.13c-2.11,68.27,27.25,103.4,88.06,105.4"/>
	<g>
		<path class="st15" d="M3874.89,202.7c5.55-17.37-10.88-29.31-24.62-19.82"/>
		<line class="st15" x1="3900.12" y1="221.27" x2="3863" y2="271.71"/>
		<path class="st15" d="M3900.12,221.27c5.55-17.37-11.5-28.07-25.23-18.57"/>
		<line class="st15" x1="3874.89" y1="202.7" x2="3838.26" y2="252.46"/>
		<line class="st15" x1="3812.95" y1="233.59" x2="3850.27" y2="182.89"/>
		<path class="st15" d="M3850.27,182.89c5.55-17.37-11.5-28.07-25.23-18.57l-37.82,51.37v-25.8c0-25.56-37.67-23.58-37.67,0
			l-1.62,75.98c38.64,7.65,71.4,35.22,104.74,72.16l73.09-98.5c5.55-17.37-11.91-27.74-25.64-18.25"/>
	</g>
	<g>
		<path class="st5" d="M3874.8,202.7c5.55-17.37-10.88-29.31-24.62-19.82"/>
		<line class="st5" x1="3900.04" y1="221.27" x2="3862.91" y2="271.71"/>
		<path class="st5" d="M3900.04,221.27c5.55-17.37-11.5-28.07-25.23-18.57"/>
		<line class="st5" x1="3874.8" y1="202.7" x2="3838.17" y2="252.46"/>
		<line class="st5" x1="3812.86" y1="233.59" x2="3850.19" y2="182.89"/>
		<path class="st5" d="M3850.19,182.89c5.55-17.37-11.5-28.07-25.23-18.57l-37.82,51.37v-25.8c0-25.56-37.67-23.58-37.67,0
			l-1.62,75.98c38.64,7.65,71.4,35.22,104.74,72.16l73.09-98.5c5.55-17.37-11.91-27.74-25.64-18.25"/>
	</g>
	<g>
		<path class="st15" d="M3151.13,202.56c-5.55-17.37,10.88-29.31,24.62-19.82"/>
		<line class="st15" x1="3125.89" y1="221.14" x2="3163.02" y2="271.57"/>
		<path class="st15" d="M3125.89,221.14c-5.55-17.37,11.5-28.07,25.23-18.57"/>
		<line class="st15" x1="3151.13" y1="202.56" x2="3187.76" y2="252.32"/>
		<line class="st15" x1="3213.06" y1="233.45" x2="3175.74" y2="182.75"/>
		<path class="st15" d="M3175.74,182.75c-5.55-17.37,11.5-28.07,25.23-18.57l37.82,51.37v-25.8c0-25.56,37.67-23.58,37.67,0
			l1.62,75.98c-38.64,7.65-71.4,35.22-104.74,72.16l-73.09-98.5c-5.55-17.37,11.91-27.74,25.64-18.25"/>
	</g>
	<g>
		<path class="st5" d="M3151.21,202.56c-5.55-17.37,10.88-29.31,24.62-19.82"/>
		<line class="st5" x1="3125.98" y1="221.14" x2="3163.11" y2="271.57"/>
		<path class="st5" d="M3125.98,221.14c-5.55-17.37,11.5-28.07,25.23-18.57"/>
		<line class="st5" x1="3151.21" y1="202.56" x2="3187.84" y2="252.32"/>
		<line class="st5" x1="3213.15" y1="233.45" x2="3175.83" y2="182.75"/>
		<path class="st5" d="M3175.83,182.75c-5.55-17.37,11.5-28.07,25.23-18.57l37.82,51.37v-25.8c0-25.56,37.67-23.58,37.67,0
			l1.62,75.98c-38.64,7.65-71.4,35.22-104.74,72.16l-73.09-98.5c-5.55-17.37,11.91-27.74,25.64-18.25"/>
	</g>
	<path class="st16" d="M3485.74,421.36c17.05,21.55,35,22.77,54.01,0"/>
	<circle cx="3512.75" cy="399.52" r="10.46"/>
</g>
<g id="Слой_10">
	<circle class="st17" cx="3973.23" cy="3524.82" r="80.14"/>
	<path class="st18" d="M3691.57,3803.7H3803l114.5-138.01c37.09-44.12,146.9-46.93,153.2,52.15l3.6,217.98l235,436.59
		c-67.81,57.36-153.3,83.3-265.03,62.61l-71.05-256.68l-58.33,256.68c-111.65,17.16-201.63-1.04-265.03-62.61l231.64-446.58h-190.44
		L3691.57,3803.7z"/>
	<path class="st18" d="M4033.36,3762.65c-55.72,69.85-120.96,159.84-151.86,163.17"/>
	<line class="st18" x1="3927.01" y1="4010.19" x2="3973.23" y2="4178.33"/>
	<polygon points="4073.68,3897.91 3921.87,3897.91 3878.78,3931.08 3881.51,3942.62 4073.68,3942.62 	"/>
	<g>
		<path class="st19" d="M3574.24,3865.96c-16.52-5.61-16.36-25.06-1.24-30.22"/>
		<line class="st19" x1="3574.17" y1="3895.95" x2="3634.12" y2="3896.09"/>
		<path class="st19" d="M3574.17,3895.95c-16.52-5.61-15.06-24.83,0.07-29.99"/>
		<line class="st19" x1="3574.24" y1="3865.96" x2="3633.38" y2="3866.1"/>
		<line class="st19" x1="3633.26" y1="3835.88" x2="3573" y2="3835.74"/>
		<path class="st19" d="M3573,3835.74c-16.52-5.61-15.06-24.83,0.07-29.99l61.06,0.14l-19.85-14.68
			c-19.67-14.55,3.3-42.41,21.44-28.99l59.39,42l-4.09,121.67l-117.4,0.18c-16.52-5.61-14.57-24.95,0.55-30.12"/>
	</g>
	<g>
		<path class="st5" d="M3574.29,3865.89c-16.52-5.61-16.36-25.06-1.24-30.22"/>
		<line class="st5" x1="3574.22" y1="3895.88" x2="3634.17" y2="3896.02"/>
		<path class="st5" d="M3574.22,3895.88c-16.52-5.61-15.06-24.83,0.07-29.99"/>
		<line class="st5" x1="3574.29" y1="3865.89" x2="3633.43" y2="3866.03"/>
		<line class="st5" x1="3633.31" y1="3835.81" x2="3573.05" y2="3835.67"/>
		<path class="st5" d="M3573.05,3835.67c-16.52-5.61-15.06-24.83,0.07-29.99l61.06,0.14l-19.85-14.68
			c-19.67-14.55,3.3-42.41,21.44-28.99l59.39,42l-4.09,121.67l-117.4,0.18c-16.52-5.61-14.57-24.95,0.55-30.12"/>
	</g>
	<path class="st20" d="M3901.78,3488.51c20.05-39.46,68.3-55.19,107.75-35.13c39.46,20.05,55.19,68.3,35.13,107.75L3901.78,3488.51z
		"/>
	<line class="st21" x1="3835.6" y1="3453.99" x2="3901.78" y2="3488.51"/>
	<path class="st22" d="M4053.37,3524.82c0,0,27.77-45.39,77.89-31.4c51.52,14.39,57.61,63.87,32.86,138.89
		c-40.83,123.72,45.03,107.21,45.03,107.21s-17.83,29.72-65.39,18.49c-47.55-11.23-70.08-83.88-47.55-153.05
		C4111.82,3557.02,4092.43,3533.36,4053.37,3524.82z"/>
	<path class="st23" d="M4294.69,4384.06l35.16,68.75l-59.55,43.88h-236.95c9.88-19.26,13.52-36.58,40.32-54.62
		C4165.75,4449.86,4236.95,4426.87,4294.69,4384.06z"/>
	<path class="st23" d="M3889.45,4438.34l-19.84,58.34l-290.29-68.23c25.79-19.3,57.29-31.84,98.47-32.91
		C3744.65,4426.1,3815.44,4439.32,3889.45,4438.34z"/>
</g>
<g id="Слой_11">
	<path class="st18" d="M1309.6,2236.66l-3.05-163.35c-17.76-105.52-164.43-105.27-204.5-33.44l-147.58,238.02l100.92,51.28
		l-188.13,394.93c76.05,47,158.52,63.51,248.2,45.71l76.03-311.43l93.91,311.43c90.35,20.74,167.92,2.7,232.55-54.66L1309.6,2236.66
		z"/>
	<line class="st5" x1="1167.56" y1="2360.28" x2="1191.5" y2="2458.39"/>
	<polyline class="st5" points="1233.91,2099.61 1087.35,2345.85 1055.4,2329.18 	"/>
	<g>
		<path class="st19" d="M945.61,2429.26c-4.63,20.32,15.23,32.33,29.93,20.18"/>
		<line class="st19" x1="915.1" y1="2410.55" x2="952.46" y2="2349.51"/>
		<path class="st19" d="M915.1,2410.55c-4.63,20.32,15.81,30.86,30.52,18.71"/>
		<line class="st19" x1="945.61" y1="2429.26" x2="982.47" y2="2369.04"/>
		<line class="st19" x1="1013.1" y1="2388.08" x2="975.55" y2="2449.44"/>
		<path class="st19" d="M975.55,2449.44c-4.63,20.32,15.81,30.86,30.52,18.71l38.05-62.17l2.5,29.38
			c2.48,29.11,45.15,23.2,42.87-3.65l-5.52-86.68l-126.19-72.03l-73.62,119.26c-4.63,20.32,16.24,30.44,30.95,18.3"/>
	</g>
	<g>
		<path class="st5" d="M945.71,2429.25c-4.63,20.32,15.23,32.33,29.93,20.18"/>
		<line class="st5" x1="915.2" y1="2410.54" x2="952.56" y2="2349.5"/>
		<path class="st5" d="M915.2,2410.54c-4.63,20.32,15.81,30.86,30.52,18.71"/>
		<line class="st5" x1="945.71" y1="2429.25" x2="982.57" y2="2369.03"/>
		<line class="st5" x1="1013.2" y1="2388.08" x2="975.65" y2="2449.43"/>
		<path class="st5" d="M975.65,2449.43c-4.63,20.32,15.81,30.86,30.52,18.71l38.05-62.17l2.5,29.38
			c2.48,29.11,45.15,23.2,42.87-3.65l-5.52-86.68l-126.19-72.03l-73.62,119.26c-4.63,20.32,16.24,30.44,30.95,18.3"/>
	</g>
	<polygon points="1149.38,2241.64 1308.94,2241.64 1308.94,2201.46 1173.29,2201.46 	"/>
	<circle class="st17" cx="1216.61" cy="1878.39" r="85.8"/>
	<path class="st24" d="M1327.8,2778.13l11.13,40.33h158.23l152.05-52.89c-42.06-27.02-87-46.48-141.02-42.12
		C1467.26,2761.83,1406.84,2779.74,1327.8,2778.13z"/>
	<path class="st24" d="M883.49,2733.61l-26.61,50.53l84.42,34.32h201.23c-11.43-24.27-28.58-39.8-52.86-44.44
		C1011.61,2779.18,941.65,2768.17,883.49,2733.61z"/>
	<path class="st23" d="M1284.32,1761.19c-0.05,0.01-0.09,0.02-0.14,0.02c-0.07-1.11-0.17-2.23-0.33-3.35
		c-3.34-23.57-25.15-39.96-48.72-36.62c-12.18,1.73-22.44,8.4-29.05,17.69c-9.28-10.34-23.37-16.02-38.16-13.92
		c-23.57,3.34-39.96,25.15-36.62,48.72c0.26,1.8,0.63,3.55,1.09,5.26c-8.4-5.41-18.7-7.96-29.37-6.44
		c-23.57,3.34-39.96,25.15-36.62,48.72c1.38,9.71,5.9,18.2,12.38,24.6c-7.06,8.93-10.61,20.62-8.88,32.79
		c3.34,23.57,25.15,39.96,48.72,36.62c8.06-1.14,15.29-4.45,21.17-9.25c9.27,10.45,23.44,16.2,38.31,14.1
		c23.34-3.31,39.63-24.73,36.7-48.03c7.44,3.6,16,5.11,24.8,3.86c17.71-2.51,31.37-15.45,35.65-31.73
		c6.54,2.46,13.78,3.37,21.19,2.31c23.57-3.34,39.96-25.15,36.62-48.72C1329.71,1774.25,1307.89,1757.85,1284.32,1761.19z"/>
</g>
<g id="Слой_12">
	<g>
		
			<ellipse transform="matrix(0.4328 -0.9015 0.9015 0.4328 -1991.7948 4879.5576)" class="st22" cx="2881.94" cy="4022.68" rx="42.42" ry="70.58"/>
		<circle cx="2974.03" cy="4066.9" r="31.58"/>
		<path class="st10" d="M2950.62,4055.65c0,0,8.79-75.83,30.95-121.99s40.33-58.25,52.73-52.29c12.4,5.95,14.33,27.69-7.83,73.85
			S2950.62,4055.65,2950.62,4055.65z"/>
		<path class="st10" d="M2959.69,4036.75c0,0-20.34-53.78-21.9-92.45s5.99-53.18,16.01-53.58c10.02-0.4,18.71,13.44,20.27,52.12
			S2959.69,4036.75,2959.69,4036.75z"/>
		<path class="st10" d="M2950.53,4055.61c0,0-53.68,54.28-75.84,100.43c-22.16,46.16-20.23,67.9-7.83,73.85
			c12.4,5.95,30.57-6.14,52.73-52.29C2941.74,4131.44,2950.53,4055.61,2950.53,4055.61z"/>
		<path class="st10" d="M2941.45,4074.51c0,0-54.69,17.76-85.84,40.72c-31.16,22.97-37.75,37.93-31.8,46
			c5.95,8.07,22.19,6.2,53.35-16.77S2941.45,4074.51,2941.45,4074.51z"/>
		<path class="st25" d="M2915.28,3991.63c-4.42,29.1-16.35,54.31-36.21,75.41"/>
		<path class="st25" d="M2890.06,3979.52c-4.42,29.1-16.35,54.31-36.21,75.41"/>
		<path class="st25" d="M2864.85,3967.41c-4.42,29.1-16.35,54.31-36.21,75.41"/>
	</g>
	<g>
		
			<ellipse transform="matrix(0.7043 -0.7099 0.7099 0.7043 -182.3965 3233.1609)" class="st22" cx="3790.07" cy="1835.54" rx="59.83" ry="35.96"/>
		<circle cx="3851.06" cy="1774.07" r="26.77"/>
		<path class="st10" d="M3835.56,1789.7c0,0-58.29-28.1-89.1-58.67s-35.44-48.48-27.23-56.75c8.21-8.28,26.16-3.78,56.97,26.79
			S3835.56,1789.7,3835.56,1789.7z"/>
		<path class="st10" d="M3822.94,1777.18c0,0-48.72,1.35-80.13-8.14c-31.41-9.49-40.92-19.57-38.46-27.71
			c2.46-8.14,15.96-11.25,47.37-1.76C3783.13,1749.06,3822.94,1777.18,3822.94,1777.18z"/>
		<path class="st10" d="M3835.5,1789.76c0,0,28.56,58.07,59.36,88.64s48.76,35.06,56.97,26.79s3.58-26.19-27.23-56.75
			S3835.5,1789.76,3835.5,1789.76z"/>
		<path class="st10" d="M3848.11,1802.28c0,0-0.97,48.73,8.77,80.06c9.74,31.33,19.89,40.77,28.01,38.24s11.13-16.05,1.39-47.38
			S3848.11,1802.28,3848.11,1802.28z"/>
		<path class="st25" d="M3774.46,1800.21c22.08,11.63,38.96,28.18,50.34,49.94"/>
		<path class="st25" d="M3757.76,1817.04c22.08,11.63,38.96,28.18,50.34,49.94"/>
		<path class="st25" d="M3741.07,1833.87c22.08,11.63,38.96,28.18,50.34,49.94"/>
	</g>
	<g>
		
			<ellipse transform="matrix(0.7043 -0.7099 0.7099 0.7043 -1252.5797 1158.6797)" class="st22" cx="764.66" cy="2083.01" rx="43.2" ry="71.87"/>
		<circle cx="690.82" cy="2009.75" r="32.15"/>
		<path class="st10" d="M709.59,2028.37c0,0-33.75,70.02-70.47,107.02s-58.23,42.57-68.17,32.71c-9.94-9.86-4.54-31.42,32.18-68.43
			S709.59,2028.37,709.59,2028.37z"/>
		<path class="st10" d="M694.55,2043.53c0,0,1.62,58.52-9.78,96.24c-11.4,37.73-23.51,49.15-33.28,46.2
			c-9.77-2.95-13.52-19.17-2.11-56.9C660.78,2091.35,694.55,2043.53,694.55,2043.53z"/>
		<path class="st10" d="M709.66,2028.44c0,0,69.75-34.3,106.47-71.31s42.12-58.56,32.18-68.43c-9.94-9.86-31.45-4.3-68.17,32.71
			C743.42,1958.43,709.66,2028.44,709.66,2028.44z"/>
		<path class="st10" d="M724.7,2013.29c0,0,58.53,1.17,96.17-10.53c37.63-11.7,48.97-23.89,45.94-33.64
			c-3.03-9.75-19.28-13.37-56.91-1.67C772.26,1979.15,724.7,2013.29,724.7,2013.29z"/>
		<path class="st25" d="M722.22,2101.75c13.96-26.52,33.85-46.79,59.99-60.46"/>
		<path class="st25" d="M742.44,2121.81c13.96-26.52,33.85-46.79,59.99-60.46"/>
		<path class="st25" d="M762.65,2141.87c13.96-26.52,33.85-46.79,59.99-60.46"/>
	</g>
	<g>
		
			<ellipse transform="matrix(0.8079 -0.5893 0.5893 0.8079 -52.415 1137.0681)" class="st22" cx="1717.95" cy="648.93" rx="62.24" ry="37.41"/>
		<circle cx="1645.17" cy="702.02" r="27.85"/>
		<path class="st10" d="M1663.68,688.52c0,0,55.24,38.47,81.85,74.95c26.61,36.48,28.42,55.64,18.62,62.79
			c-9.8,7.15-27.49-0.43-54.1-36.9C1683.44,752.88,1663.68,688.52,1663.68,688.52z"/>
		<path class="st10" d="M1674.57,703.46c0,0,50.27,6.64,80.96,21.57c30.7,14.93,38.81,26.85,34.94,34.8
			c-3.87,7.95-18.25,8.93-48.95-6C1710.83,738.9,1674.57,703.46,1674.57,703.46z"/>
		<path class="st10" d="M1663.75,688.47c0,0-19.76-64.35-46.37-100.83s-44.3-44.05-54.1-36.9c-9.8,7.15-7.99,26.31,18.62,62.79
			C1608.5,650,1663.75,688.47,1663.75,688.47z"/>
		<path class="st10" d="M1652.85,673.53c0,0,9.03-49.89,4.19-83.68s-13.71-45.15-22.46-43.9c-8.75,1.25-14.08,14.65-9.24,48.44
			C1630.18,628.18,1652.85,673.53,1652.85,673.53z"/>
		<path class="st25" d="M1728.16,687.79c-20.76-15.58-35.37-35.36-43.47-59.6"/>
		<path class="st25" d="M1748.09,673.26c-20.76-15.58-35.37-35.36-43.47-59.6"/>
		<path class="st25" d="M1768.02,658.72c-20.76-15.58-35.37-35.36-43.47-59.6"/>
	</g>
	<g>
		
			<ellipse transform="matrix(0.8887 -0.4586 0.4586 0.8887 -1411.4871 1000.3068)" class="st22" cx="1354.15" cy="3406.77" rx="62.24" ry="37.41"/>
		<circle cx="1434.2" cy="3365.46" r="27.85"/>
		<path class="st10" d="M1413.85,3375.96c0,0-48.7-46.48-69.4-86.6c-20.71-40.12-19.56-59.34-8.78-64.9s27.1,4.63,47.81,44.76
			C1404.18,3309.34,1413.85,3375.96,1413.85,3375.96z"/>
		<path class="st10" d="M1405.37,3359.53c0,0-48.65-14.26-76.7-33.72s-34.24-32.47-29.2-39.74c5.04-7.27,19.4-6.03,47.45,13.43
			C1374.96,3318.95,1405.37,3359.53,1405.37,3359.53z"/>
		<path class="st10" d="M1413.77,3376c0,0,9.67,66.62,30.37,106.74s37.03,50.32,47.81,44.76c10.78-5.56,11.93-24.77-8.78-64.9
			C1462.46,3422.48,1413.77,3376,1413.77,3376z"/>
		<path class="st10" d="M1422.25,3392.43c0,0-16.57,47.92-16.96,82.05c-0.39,34.13,6.63,46.72,15.47,46.82s16.16-12.32,16.55-46.45
			S1422.25,3392.43,1422.25,3392.43z"/>
		<path class="st25" d="M1350.01,3366.8c18.13,18.58,29.54,40.37,33.83,65.56"/>
		<path class="st25" d="M1328.09,3378.11c18.13,18.58,29.54,40.37,33.83,65.56"/>
		<path class="st25" d="M1306.17,3389.43c18.13,18.58,29.54,40.37,33.83,65.56"/>
	</g>
</g>
</svg>
