<?xml version="1.0" encoding="utf-8"?>
<!-- Generator: Adobe Illustrator 24.0.1, SVG Export Plug-In . SVG Version: 6.00 Build 0)  -->
<svg version="1.1" xmlns="http://www.w3.org/2000/svg" xmlns:xlink="http://www.w3.org/1999/xlink" x="0px" y="0px"
	 viewBox="0 0 5000 5000" style="enable-background:new 0 0 5000 5000;" xml:space="preserve">
<style type="text/css">
	.st0{fill:#5D5DA3;stroke:#000000;stroke-width:16;stroke-miterlimit:10;}
	.st1{fill:#EF72A4;stroke:#000000;stroke-width:16;stroke-miterlimit:10;}
	.st2{fill:#EF6551;stroke:#000000;stroke-width:16;stroke-linecap:round;stroke-linejoin:round;stroke-miterlimit:10;}
	.st3{fill:#F7DAC8;stroke:#000000;stroke-width:16;stroke-linecap:round;stroke-linejoin:round;stroke-miterlimit:10;}
	.st4{fill:#FFFFFF;stroke:#000000;stroke-width:16;stroke-miterlimit:10;}
	.st5{stroke:#000000;stroke-width:16;stroke-linecap:round;stroke-linejoin:round;stroke-miterlimit:10;}
	.st6{fill:none;stroke:#000000;stroke-width:16;stroke-linecap:round;stroke-linejoin:round;stroke-miterlimit:10;}
	.st7{fill:#55C3B4;stroke:#000000;stroke-width:16;stroke-linecap:round;stroke-linejoin:round;stroke-miterlimit:10;}
	.st8{fill:#B1A6C4;stroke:#000000;stroke-width:16;stroke-linecap:round;stroke-linejoin:round;stroke-miterlimit:10;}
	.st9{fill:#B1A6C4;stroke:#000000;stroke-width:16;stroke-miterlimit:10;}
	.st10{fill:#FBD67B;stroke:#000000;stroke-width:16;stroke-miterlimit:10;}
	.st11{fill:#5D5DA3;stroke:#000000;stroke-width:16;stroke-linecap:round;stroke-linejoin:round;stroke-miterlimit:10;}
	.st12{fill:none;stroke:#000000;stroke-width:16;stroke-linejoin:round;stroke-miterlimit:10;}
	.st13{fill:#EF72A4;}
	.st14{opacity:0.26;fill:#FFFFFF;}
	.st15{fill:#F7DAC8;}
	.st16{opacity:0.71;fill:#B1A6C4;}
	.st17{fill:#55C3B4;}
	.st18{fill:#EF6551;}
</style>
<g id="Слой_1">
</g>
<g id="Слой_2">
	
		<ellipse transform="matrix(0.2502 -0.9682 0.9682 0.2502 -194.2963 4719.8442)" class="st0" cx="2950.01" cy="2485.36" rx="160.36" ry="402.32"/>
	
		<ellipse transform="matrix(0.2987 -0.9543 0.9543 0.2987 186.4192 2954.2073)" class="st1" cx="2103.37" cy="1350.26" rx="447" ry="311.9"/>
	<path class="st2" d="M686.5,3841l298-1091c53.2-149.6,178.5-293.5,341-293h1608c237.23-13.89,369.62,140.64,471,345l621,1081
		C2899.96,4218.21,1785.9,4233.87,686.5,3841z"/>
	<path class="st3" d="M1563.15,2456c0,0,51.85-692.13,107.85-773.48s432-239.99,524-207.45s236,536.92,236,536.92l-176,134.23
		l84.18,309.78H1563.15z"/>
	<path class="st1" d="M1582.48,2220.32c317.2-126.93,504.91-376.54,563.15-748.81c0,0-436.09,104.52-485.36,230
		S1582.48,2220.32,1582.48,2220.32z"/>
	
		<ellipse transform="matrix(0.2987 -0.9543 0.9543 0.2987 -390.8065 2593.6946)" class="st1" cx="1569.45" cy="1562.77" rx="536.72" ry="374.5"/>
	
		<ellipse transform="matrix(0.9623 -0.2722 0.2722 0.9623 -413.1429 655.6993)" class="st4" cx="2157.27" cy="1817.26" rx="108.6" ry="24.65"/>
	<ellipse cx="2202.5" cy="1805" rx="18.5" ry="23"/>
	<polygon class="st5" points="2029,1772 2174,1674 2195,1698 	"/>
	<polygon class="st2" points="2084,2354 2084,2241 2142,2183 2206,2339 	"/>
	<path class="st6" d="M2062,2209c46.54,64.42,102.54,111.75,168,142"/>
	<circle class="st7" cx="2755.5" cy="1437.5" r="186.5"/>
	<path class="st8" d="M2673.39,1628.85c34.22,18.59,73.43,29.15,115.11,29.15c133.38,0,241.5-108.12,241.5-241.5
		S2921.88,1175,2788.5,1175c-127.36,0-231.69,98.59-240.85,223.61c46.52-52.1,165.41-23.99,286.35,6.39
		C2798.5,1516.95,2767.22,1637.62,2673.39,1628.85z"/>
	<path class="st6" d="M2568,1432c-16-10-22-20-20.16-35.82"/>
	<path class="st6" d="M2666,1601c-9,9-4,25,7,28"/>
	<circle cx="2840" cy="1408" r="44"/>
	<line class="st6" x1="2840" y1="1333" x2="2702" y2="1089"/>
	<path class="st6" d="M2673,1604.79c49.72-26.29,66.56-65.05,65-110.79"/>
	<circle cx="2683" cy="1444" r="15"/>
	<path class="st9" d="M2563,2376c40.67-212.75,99.34-425.35,175-600c77-75.62,174.33-89.95,292-43
		c230.69,154.06,270.24,489.19,311,828C3278,2342,2660,2206,2563,2376z"/>
	<path class="st7" d="M3183,2436c-382.65-145.6-476.64,58.9-325,571c8,35,61,22,58,0c-152.47-484.57-65.81-665.83,289-507
		C3246,2493,3219,2448,3183,2436z"/>
	<path class="st7" d="M2641.97,2439.63C2391,2310,2569.93,2654.76,2745,3007c-0.73,32.15-16.54,41.77-52,22
		c-202.6-423.99-368-748-62-639C2713,2414,2660,2456,2641.97,2439.63z"/>
	<path class="st7" d="M2846.27,1651.04c17.73,15.96,23.73,32.96,19.82,57.91L2908,1706c1-25,1-45-18-71L2846.27,1651.04z"/>
	<line class="st6" x1="2674" y1="2988" x2="2723" y2="2963"/>
	<line class="st6" x1="2644" y1="2927" x2="2693" y2="2903"/>
	<line class="st6" x1="2616" y1="2867" x2="2663" y2="2842"/>
	<line class="st6" x1="2587" y1="2805" x2="2634" y2="2781"/>
	<line class="st6" x1="2561" y1="2749" x2="2608" y2="2726"/>
	<line class="st6" x1="2538" y1="2696" x2="2584" y2="2674"/>
	<line class="st6" x1="2514" y1="2639" x2="2563" y2="2623"/>
	<line class="st6" x1="2490" y1="2573" x2="2539" y2="2561"/>
	<line class="st6" x1="2472" y1="2514" x2="2523" y2="2500"/>
	<line class="st6" x1="2464" y1="2424" x2="2520" y2="2440"/>
	<line class="st6" x1="2500" y1="2374" x2="2539" y2="2416"/>
	<line class="st6" x1="2584" y1="2409" x2="2585" y2="2376"/>
	<line class="st6" x1="2619" y1="2429" x2="2631" y2="2390"/>
	<line class="st6" x1="2849" y1="2975" x2="2904" y2="2968"/>
	<line class="st6" x1="2835" y1="2926" x2="2889" y2="2915"/>
	<line class="st6" x1="2818" y1="2854" x2="2872" y2="2847"/>
	<line class="st6" x1="2805" y1="2787" x2="2858" y2="2780"/>
	<line class="st6" x1="2794" y1="2717" x2="2848" y2="2715"/>
	<line class="st6" x1="2789" y1="2650" x2="2844" y2="2650"/>
	<line class="st6" x1="2793" y1="2567" x2="2850" y2="2574"/>
	<line class="st6" x1="2809" y1="2500" x2="2867" y2="2518"/>
	<line class="st6" x1="2838" y1="2448" x2="2893" y2="2482"/>
	<line class="st6" x1="2899" y1="2404" x2="2930" y2="2457"/>
	<line class="st6" x1="2974" y1="2390" x2="2980" y2="2445"/>
	<line class="st6" x1="3043" y1="2396" x2="3038" y2="2447"/>
	<line class="st6" x1="3103" y1="2409" x2="3093" y2="2459"/>
	<line class="st6" x1="3172" y1="2432" x2="3159" y2="2481"/>
	<line class="st6" x1="2862" y1="1672" x2="2901" y2="1654"/>
	<line class="st6" x1="2867" y1="1690" x2="2908" y2="1682"/>
	<path class="st8" d="M2745,3007l55,107l-204,251c-75-140-37.75-256.81,97-336C2717,3045,2745,3046,2745,3007z"/>
	<circle class="st10" cx="2655" cy="3177" r="20"/>
	<path class="st8" d="M2862,3016.64c-152.1,42.92-233.01,134.22-193,307.36l328-188l-81-129C2915,3029,2876,3039,2862,3016.64z"/>
	<polygon class="st11" points="2973,3098 2662,3284 2669,3324 2997,3136 	"/>
	<polygon class="st11" points="2659,3230 2578,3328 2596,3365 2662,3284 	"/>
	<line class="st12" x1="2659" y1="3279" x2="2973" y2="3098"/>
	<circle class="st10" cx="2743" cy="3185" r="20"/>
	<circle class="st10" cx="2796" cy="3154" r="20"/>
	<circle class="st10" cx="2848" cy="3124" r="20"/>
	<circle class="st10" cx="2611" cy="3225" r="20"/>
	<path class="st10" d="M2872.75,3083.25l30.2,54.23l27.89-16.3l-29.49-52.97C2888.64,3046.72,2864.28,3058.54,2872.75,3083.25z"/>
	<line class="st12" x1="2578" y1="3328" x2="2659" y2="3230"/>
	<path class="st13" d="M1368,1635c8,348,387,328,387,328c-276,270-542,61-573-215c-37.43-333.22,206.5-628,296-659
		C1478,1089,1359.66,1272.16,1368,1635z"/>
	<polygon class="st13" points="1712,2001 1741,2138 1585,2209 1600,2068 	"/>
	<path class="st13" d="M2086,1481l-127,32c-8-186,10-211-101-377c0,0,115-185,257-219C2115,917,1975,1175,2086,1481z"/>
	<ellipse class="st14" cx="1754.5" cy="1379" rx="109.5" ry="250"/>
	<ellipse class="st14" cx="2254.5" cy="1190.5" rx="98.77" ry="225.5"/>
	<ellipse transform="matrix(0.866 -0.5 0.5 0.866 -259.8529 1628.2157)" class="st14" cx="2908.37" cy="1299" rx="49.63" ry="99"/>
	<polygon class="st15" points="1563,2456 1793,2456 1741,2138 1582,2220 	"/>
	<path class="st16" d="M2867,1709c-78,176-129,443-111,592c-80.18-0.78-122.28,9.48-187,53c30.62-184.77,89.83-379.8,169-582
		C2771.09,1745.63,2838,1718.06,2867,1709z"/>
	<path class="st16" d="M2661,1211c-57,106-25,159-25,159l-88,17C2547,1334,2632,1220.06,2661,1211z"/>
	<path class="st16" d="M2856,1647c-101-12-100-55-100-55l-70,43C2806,1686,2828,1651,2856,1647z"/>
	<path class="st14" d="M3158,2380c-51.02-21.49-99.88-41.48-141-52c38.54-172.06,46.79-356.47,11-587c31,23,45,33,82,72
		C3174.96,2011.8,3186.91,2182.13,3158,2380z"/>
	<path class="st17" d="M2604,1368c-9,116,7,188,134,242l-25.84,8.93C2626,1592,2548,1513,2576.33,1379L2604,1368z"/>
	<path class="st17" d="M2814,1444c-99-47-197-27-246,0l8-63c33-4,157-13,235,27L2814,1444z"/>
	<path class="st18" d="M1467,2456v1596c-260-51-610-152-781-211l298-1091C1048.6,2628.96,1101,2422,1467,2456z"/>
</g>
</svg>
