<?xml version="1.0" encoding="utf-8"?>
<!-- Generator: Adobe Illustrator 24.0.1, SVG Export Plug-In . SVG Version: 6.00 Build 0)  -->
<svg version="1.1" id="Слой_1" xmlns="http://www.w3.org/2000/svg" xmlns:xlink="http://www.w3.org/1999/xlink" x="0px" y="0px"
	 viewBox="0 0 5000 5000" style="enable-background:new 0 0 5000 5000;" xml:space="preserve">
<style type="text/css">
	.st0{fill:#5D5DA3;stroke:#000000;stroke-width:16;stroke-miterlimit:10;}
	.st1{fill:#FBD67B;stroke:#000000;stroke-width:16;stroke-linecap:round;stroke-linejoin:round;stroke-miterlimit:10;}
	.st2{fill:#F7DAC8;stroke:#000000;stroke-width:16;stroke-linecap:round;stroke-linejoin:round;stroke-miterlimit:10;}
	.st3{stroke:#000000;stroke-width:16;stroke-linecap:round;stroke-linejoin:round;stroke-miterlimit:10;}
	.st4{fill:#55C3B4;stroke:#000000;stroke-width:16;stroke-linecap:round;stroke-linejoin:round;stroke-miterlimit:10;}
	.st5{fill:#B1A6C4;stroke:#000000;stroke-width:16;stroke-linecap:round;stroke-linejoin:round;stroke-miterlimit:10;}
	.st6{fill:none;stroke:#000000;stroke-width:16;stroke-linecap:round;stroke-linejoin:round;stroke-miterlimit:10;}
	.st7{fill:#B1A6C4;stroke:#000000;stroke-width:16;stroke-miterlimit:10;}
	.st8{fill:#FBD67B;stroke:#000000;stroke-width:16;stroke-miterlimit:10;}
	.st9{fill:#5D5DA3;stroke:#000000;stroke-width:16;stroke-linecap:round;stroke-linejoin:round;stroke-miterlimit:10;}
	.st10{fill:none;stroke:#000000;stroke-width:16;stroke-linejoin:round;stroke-miterlimit:10;}
	.st11{opacity:0.26;fill:#FFFFFF;}
	.st12{fill:#F7DAC8;}
	.st13{opacity:0.71;fill:#B1A6C4;}
	.st14{fill:#55C3B4;}
	.st15{fill:#FBD67B;}
	.st16{fill:#EF6751;stroke:#000000;stroke-width:16;stroke-linecap:round;stroke-linejoin:round;stroke-miterlimit:10;}
	.st17{fill:#EF6751;}
</style>
<ellipse transform="matrix(0.2502 -0.9682 0.9682 0.2502 -153.7412 4744.9507)" class="st0" cx="2986.49" cy="2471.73" rx="160.36" ry="402.32"/>
<path class="st1" d="M722.99,3827.37l298-1091c53.2-149.6,178.5-293.5,341-293h1608c237.23-13.89,369.62,140.64,471,345l621,1081
	C2936.45,4204.58,1822.38,4220.24,722.99,3827.37z"/>
<path class="st2" d="M1599.64,2439c0,0,51.85-692.13,107.85-773.48s432-239.99,524-207.45s236,536.92,236,536.92l-176,134.23
	l84.18,309.78H1599.64z"/>
<polygon class="st3" points="1857.7,1862.81 1969.13,1727.86 1996.05,1744.95 "/>
<circle class="st4" cx="2791.99" cy="1423.87" r="186.5"/>
<path class="st5" d="M2709.87,1615.22c34.22,18.59,73.43,29.15,115.11,29.15c133.38,0,241.5-108.12,241.5-241.5
	s-108.12-241.5-241.5-241.5c-127.36,0-231.69,98.59-240.85,223.61c46.52-52.1,165.41-23.99,286.35,6.39
	C2834.99,1503.32,2803.71,1623.99,2709.87,1615.22z"/>
<path class="st6" d="M2604.49,1418.37c-16-10-22-20-20.16-35.82"/>
<path class="st6" d="M2702.49,1587.37c-9,9-4,25,7,28"/>
<circle cx="2876.49" cy="1394.37" r="44"/>
<line class="st6" x1="2876.49" y1="1319.37" x2="2738.49" y2="1075.37"/>
<path class="st6" d="M2709.49,1591.16c49.72-26.29,66.56-65.05,65-110.79"/>
<circle cx="2719.49" cy="1430.37" r="15"/>
<path class="st7" d="M2599.49,2362.37c40.67-212.75,99.34-425.35,175-600c77-75.62,174.33-89.95,292-43
	c230.69,154.06,270.24,489.19,311,828C3314.49,2328.37,2696.49,2192.37,2599.49,2362.37z"/>
<path class="st4" d="M3219.49,2422.37c-382.65-145.6-476.64,58.9-325,571c8,35,61,22,58,0c-152.47-484.57-65.81-665.83,289-507
	C3282.49,2479.37,3255.49,2434.37,3219.49,2422.37z"/>
<path class="st4" d="M2678.46,2426c-250.97-129.63-72.04,215.13,103.03,567.37c-0.73,32.15-16.54,41.77-52,22
	c-202.6-423.99-368-748-62-639C2749.49,2400.37,2696.49,2442.37,2678.46,2426z"/>
<path class="st4" d="M2882.76,1637.41c17.73,15.96,23.73,32.96,19.82,57.91l41.91-2.96c1-25,1-45-18-71L2882.76,1637.41z"/>
<line class="st6" x1="2710.49" y1="2974.37" x2="2759.49" y2="2949.37"/>
<line class="st6" x1="2680.49" y1="2913.37" x2="2729.49" y2="2889.37"/>
<line class="st6" x1="2652.49" y1="2853.37" x2="2699.49" y2="2828.37"/>
<line class="st6" x1="2623.49" y1="2791.37" x2="2670.49" y2="2767.37"/>
<line class="st6" x1="2597.49" y1="2735.37" x2="2644.49" y2="2712.37"/>
<line class="st6" x1="2574.49" y1="2682.37" x2="2620.49" y2="2660.37"/>
<line class="st6" x1="2550.49" y1="2625.37" x2="2599.49" y2="2609.37"/>
<line class="st6" x1="2526.49" y1="2559.37" x2="2575.49" y2="2547.37"/>
<line class="st6" x1="2508.49" y1="2500.37" x2="2559.49" y2="2486.37"/>
<line class="st6" x1="2500.49" y1="2410.37" x2="2556.49" y2="2426.37"/>
<line class="st6" x1="2536.49" y1="2360.37" x2="2575.49" y2="2402.37"/>
<line class="st6" x1="2620.49" y1="2395.37" x2="2621.49" y2="2362.37"/>
<line class="st6" x1="2655.49" y1="2415.37" x2="2667.49" y2="2376.37"/>
<line class="st6" x1="2885.49" y1="2961.37" x2="2940.49" y2="2954.37"/>
<line class="st6" x1="2871.49" y1="2912.37" x2="2925.49" y2="2901.37"/>
<line class="st6" x1="2854.49" y1="2840.37" x2="2908.49" y2="2833.37"/>
<line class="st6" x1="2841.49" y1="2773.37" x2="2894.49" y2="2766.37"/>
<line class="st6" x1="2830.49" y1="2703.37" x2="2884.49" y2="2701.37"/>
<line class="st6" x1="2825.49" y1="2636.37" x2="2880.49" y2="2636.37"/>
<line class="st6" x1="2829.49" y1="2553.37" x2="2886.49" y2="2560.37"/>
<line class="st6" x1="2845.49" y1="2486.37" x2="2903.49" y2="2504.37"/>
<line class="st6" x1="2874.49" y1="2434.37" x2="2929.49" y2="2468.37"/>
<line class="st6" x1="2935.49" y1="2390.37" x2="2966.49" y2="2443.37"/>
<line class="st6" x1="3010.49" y1="2376.37" x2="3016.49" y2="2431.37"/>
<line class="st6" x1="3079.49" y1="2382.37" x2="3074.49" y2="2433.37"/>
<line class="st6" x1="3139.49" y1="2395.37" x2="3129.49" y2="2445.37"/>
<line class="st6" x1="3208.49" y1="2418.37" x2="3195.49" y2="2467.37"/>
<line class="st6" x1="2898.49" y1="1658.37" x2="2937.49" y2="1640.37"/>
<line class="st6" x1="2903.49" y1="1676.37" x2="2944.49" y2="1668.37"/>
<path class="st5" d="M2781.49,2993.37l55,107l-204,251c-75-140-37.75-256.81,97-336
	C2753.49,3031.37,2781.49,3032.37,2781.49,2993.37z"/>
<circle class="st8" cx="2691.49" cy="3163.37" r="20"/>
<path class="st5" d="M2898.49,3003.01c-152.1,42.92-233.01,134.22-193,307.36l328-188l-81-129
	C2951.49,3015.37,2912.49,3025.37,2898.49,3003.01z"/>
<polygon class="st9" points="3009.49,3084.37 2698.49,3270.37 2705.49,3310.37 3033.49,3122.37 "/>
<polygon class="st9" points="2695.49,3216.37 2614.49,3314.37 2632.49,3351.37 2698.49,3270.37 "/>
<line class="st10" x1="2695.49" y1="3265.37" x2="3009.49" y2="3084.37"/>
<circle class="st8" cx="2779.49" cy="3171.37" r="20"/>
<circle class="st8" cx="2832.49" cy="3140.37" r="20"/>
<circle class="st8" cx="2884.49" cy="3110.37" r="20"/>
<circle class="st8" cx="2647.49" cy="3211.37" r="20"/>
<path class="st8" d="M2909.24,3069.62l30.2,54.23l27.89-16.3l-29.49-52.97C2925.13,3033.09,2900.76,3044.91,2909.24,3069.62z"/>
<line class="st10" x1="2614.49" y1="3314.37" x2="2695.49" y2="3216.37"/>
<ellipse transform="matrix(0.866 -0.5 0.5 0.866 -248.1499 1644.6329)" class="st11" cx="2944.85" cy="1285.37" rx="49.63" ry="99"/>
<polygon class="st12" points="1599.49,2442.37 1829.49,2442.37 1774,2104 1699,2096 1618.49,2206.37 "/>
<path class="st13" d="M2903.49,1695.37c-78,176-129,443-111,592c-80.18-0.78-122.28,9.48-187,53c30.62-184.77,89.83-379.8,169-582
	C2807.58,1732,2874.48,1704.43,2903.49,1695.37z"/>
<path class="st13" d="M2697.49,1197.37c-57,106-25,159-25,159l-88,17C2583.49,1320.37,2668.48,1206.43,2697.49,1197.37z"/>
<path class="st13" d="M2892.49,1633.37c-101-12-100-55-100-55l-70,43C2842.49,1672.37,2864.49,1637.37,2892.49,1633.37z"/>
<path class="st11" d="M3194.49,2366.37c-51.02-21.49-99.88-41.48-141-52c38.54-172.06,46.79-356.47,11-587c31,23,45,33,82,72
	C3211.44,1998.17,3223.4,2168.5,3194.49,2366.37z"/>
<path class="st14" d="M2640.49,1354.37c-9,116,7,188,134,242l-25.84,8.93c-86.16-26.93-164.16-105.93-135.84-239.93L2640.49,1354.37
	z"/>
<path class="st14" d="M2850.49,1430.37c-99-47-197-27-246,0l8-63c33-4,157-13,235,27L2850.49,1430.37z"/>
<path class="st15" d="M1503.49,2442.37v1596c-260-51-610-152-781-211l298-1091C1085.09,2615.33,1137.49,2408.37,1503.49,2442.37z"/>
<ellipse transform="matrix(0.2964 -0.9551 0.9551 0.2964 -344.6412 3244.1858)" cx="2029.5" cy="1856" rx="24" ry="18.5"/>
<path class="st6" d="M1956,2240c90.46,101.43,220.45,121.67,384,73"/>
<path class="st6" d="M1817.78,1913.73c-15.08-8.73-32.6-13.73-51.28-13.73c-56.61,0-102.5,45.89-102.5,102.5
	s45.89,102.5,102.5,102.5c27.88,0,53.17-11.13,71.65-29.2"/>
<path class="st6" d="M1703,2003c19.79-49.14,73-42,93-21"/>
<path class="st6" d="M1764,2045c-25-13-34.67-41.79-24-75"/>
<path class="st16" d="M1703,2082.96L1639,2289c-8,35-61,34-61-6l41-611c1-29,7.07-84.86,33-112c86-90,359.21-177.43,613-206
	c85-8,133,65,57,126l-464,248l-64,176c0,0-98.15-26.49-128.42,80.47C1651,2036,1703,2082.96,1703,2082.96z"/>
<path class="st17" d="M1629,2306c37.38-80.11,54.64-145.56,74-223c0,0-50-38-39-92c18.79-92.22,71-85,71-85
	c21.15-155.12,16.14-322.2,52-431c-36.98,21.57-167,55-166,169l-43,662H1629z"/>
</svg>
