<?xml version="1.0" encoding="utf-8"?>
<!-- Generator: Adobe Illustrator 24.0.1, SVG Export Plug-In . SVG Version: 6.00 Build 0)  -->
<svg version="1.1" xmlns="http://www.w3.org/2000/svg" xmlns:xlink="http://www.w3.org/1999/xlink" x="0px" y="0px"
	 viewBox="0 0 5000 5000" style="enable-background:new 0 0 5000 5000;" xml:space="preserve">
<style type="text/css">
	.st0{fill:none;stroke:#000000;stroke-width:16;stroke-miterlimit:10;}
	.st1{fill:#B1A6C4;stroke:#000000;stroke-width:16;stroke-linecap:round;stroke-linejoin:round;stroke-miterlimit:10;}
	.st2{fill:#EF72A4;stroke:#000000;stroke-width:16;stroke-linecap:round;stroke-linejoin:round;stroke-miterlimit:10;}
	.st3{fill:#5D5DA3;stroke:#000000;stroke-width:16;stroke-miterlimit:10;}
	.st4{fill:#EF6551;stroke:#000000;stroke-width:16;stroke-linecap:round;stroke-linejoin:round;stroke-miterlimit:10;}
	.st5{fill:#FBD67C;stroke:#000000;stroke-width:16;stroke-linecap:round;stroke-linejoin:round;stroke-miterlimit:10;}
	.st6{fill:#A3E6EE;stroke:#000000;stroke-width:16;stroke-miterlimit:10;}
	.st7{fill:#55C3B4;stroke:#000000;stroke-width:16;stroke-linecap:round;stroke-linejoin:round;stroke-miterlimit:10;}
	.st8{stroke:#000000;stroke-width:16;stroke-linecap:round;stroke-linejoin:round;stroke-miterlimit:10;}
	.st9{fill:#FFFFFF;stroke:#000000;stroke-width:16;stroke-linecap:round;stroke-linejoin:round;stroke-miterlimit:10;}
	.st10{fill:none;stroke:#000000;stroke-width:16;stroke-linecap:round;stroke-linejoin:round;stroke-miterlimit:10;}
	.st11{fill:#A3E6EE;stroke:#000000;stroke-width:16;stroke-linecap:round;stroke-linejoin:round;stroke-miterlimit:10;}
	.st12{fill:#FBD67C;stroke:#000000;stroke-width:16;stroke-linejoin:round;stroke-miterlimit:10;}
	.st13{fill:#EF6551;}
	.st14{fill:#B47E69;stroke:#000000;stroke-width:16;stroke-miterlimit:10;}
	.st15{fill:none;stroke:#000000;stroke-width:13;stroke-linecap:round;stroke-linejoin:round;stroke-miterlimit:10;}
	.st16{fill:none;stroke:#000000;stroke-width:16;stroke-linecap:round;stroke-miterlimit:10;}
	.st17{fill:#F8D9C6;stroke:#000000;stroke-width:16;stroke-linecap:round;stroke-linejoin:round;stroke-miterlimit:10;}
	.st18{fill:#B47E69;stroke:#000000;stroke-width:16;stroke-linecap:round;stroke-linejoin:round;stroke-miterlimit:10;}
	.st19{fill:#F8D9C6;}
	.st20{fill:#5D5DA3;}
</style>
<g id="Слой_1">
	<line class="st0" x1="3705.81" y1="1134.23" x2="3705.81" y2="1161.35"/>
</g>
<g id="Слой_2">
	<polygon class="st1" points="618,2509.09 292.64,2509.09 292.64,2716.09 1085,2716.09 2500,3756.09 2826.99,3756.09 
		2826.99,3544.09 1236,2509.09 	"/>
	<polygon class="st1" points="3754,3756.09 4085.62,3756.09 4085.62,3963.41 2664,3963.41 1244.05,5000 927.01,5000 927.01,4792.68 
		2500,3756.09 	"/>
	<path class="st2" d="M425.31,2640.62c114.7,72.46,302.79,308.73,302.79,308.73s-294.15-68.39-408.85-140.85
		c-114.7-72.46-138.91-140.34-109.62-186.69S310.61,2568.16,425.31,2640.62z"/>
	<polygon class="st1" points="3118.24,1265.11 4705.74,1265.11 4705.74,1472.43 3247.97,1472.43 1869.99,2509.09 1552,2509.09 
		1552,2301.77 	"/>
	<path class="st3" d="M2061.8,704.38c0,480.44-315.82,811.3-315.82,811.3s-315.82-330.86-315.82-811.3
		c0-219.08,141.4-396.68,315.82-396.68S2061.8,485.3,2061.8,704.38z"/>
	<path class="st4" d="M3339.1,3005.87v317.95h41.8v-317.95C3374.98,2986.44,3346.76,2985.76,3339.1,3005.87z"/>
	<path class="st3" d="M3369.22,3136.85c273.62,0,495.43-221.81,495.43-495.43S3642.84,2146,3369.22,2146
		s-495.43,221.81-495.43,495.43S3095.61,3136.85,3369.22,3136.85"/>
	<path class="st4" d="M1727.63,686.88v992.87h36.68V686.88C1764,664.57,1727,664.57,1727.63,686.88z"/>
	<rect x="1236" y="2509.09" class="st5" width="1112" height="207.32"/>
	<path class="st6" d="M585.68,3565.7c65.35,91.62,125.49,339.31,125.49,339.31s-214.6-137.52-279.95-229.14
		s-58.09-154.59-15.43-185.01C458.43,3460.44,520.33,3474.07,585.68,3565.7z"/>
	<rect x="618" y="2301.77" class="st5" width="934" height="207.32"/>
	<path class="st7" d="M856.23,2417.54c-13.97,165.76-142.26,505.87-142.26,505.87s-69.58-356.78-55.61-522.54
		c13.97-165.76,64.1-231.32,118.74-226.72C831.74,2178.75,870.2,2251.78,856.23,2417.54z"/>
	<path class="st7" d="M848.49,3121.74c-22.31,115-124.46,346.03-124.46,346.03s-8.36-252.47,13.95-367.47
		c22.31-115,56.37-158.28,86.89-152.36C855.39,2953.86,870.8,3006.74,848.49,3121.74z"/>
	<path class="st7" d="M3901.32,3484.6c180.05,38.69,305.3,23.4,311.28-109.35c0,0,179.27-39.33,188.32-180.22
		c9.05-140.89-168.07-107.32-168.07-107.32s426.89-228.54,259.19-446.28s-380.69,69.64-380.69,69.64s370.66-510.8,119.47-726.96
		c-112.73-97.01-255.14,263.24-255.14,263.24s-65.53-433.34-261.22-433.34c-195.69,0-222.67,181.84-253.46,368.93
		c-45.05,273.73,145.89,677.44,145.89,677.44s-172.12-102.81-246.89-11.69c-116.8,142.35,20.9,352.78,135.76,360.51
		c0,0-40.5,87.07,64.8,194.4c105.3,107.32,291.59,81,291.59,81H3901.32z"/>
	<path class="st3" d="M3864.64,2520.73v1230.44h36.68V2520.73C3901,2493.09,3864,2493.09,3864.64,2520.73z"/>
	<path class="st3" d="M699.64,2628.46v1748.71h36.68l0-1748.71C736,2589.18,699,2589.18,699.64,2628.46z"/>
	<path class="st7" d="M479.39,2478.18c102.17,131.27,238.59,468.21,238.59,468.21s-293.12-214.98-395.29-346.25
		c-102.17-131.27-109.8-213.45-66.52-247.13C299.43,2319.33,377.22,2346.91,479.39,2478.18z"/>
	<rect x="1572.99" y="3756.09" class="st5" width="927.01" height="207.32"/>
	<rect x="2826.99" y="3544.09" class="st5" width="927.01" height="212"/>
	<rect x="2507.99" y="3337.09" class="st4" width="953.01" height="207.32"/>
	<path class="st2" d="M4177.95,2348.35c-47.83,96.8-198.82,275.36-198.82,275.36s50.07-228.42,97.9-325.22
		c47.83-96.8,90.41-126.1,118.28-112.34C4223.17,2199.92,4225.78,2251.55,4177.95,2348.35z"/>
	<path class="st2" d="M4320.08,2872.4c-93.52,53.96-318.24,118.64-318.24,118.64s168.46-162.18,261.98-216.15
		c93.52-53.96,145.21-54.69,160.74-27.77C4440.1,2774.06,4413.6,2818.44,4320.08,2872.4z"/>
	<path class="st2" d="M4214.55,3264.21c-71.01,7.61-225.92-29.02-225.92-29.02s143.63-68.63,214.64-76.24
		c71.01-7.61,103.22,12.77,106.33,41.84C4312.72,3229.85,4285.56,3256.6,4214.55,3264.21z"/>
	<path class="st2" d="M4096.67,3440.23c-41.34,4.43-131.93-20.74-131.93-20.74s83.2-43.8,124.54-48.23
		c41.34-4.43,60.27,9.16,62.31,28.2C4153.64,3418.5,4138.01,3435.79,4096.67,3440.23z"/>
	<path class="st2" d="M3641.09,3280.91c47.52,16.09,136.31,82.76,136.31,82.76s-111.02-0.97-158.55-17.06s-62.41-37.52-56.27-55.66
		S3593.57,3264.82,3641.09,3280.91z"/>
	<path class="st2" d="M3550.32,2950.25c70.4,40.17,181.18,189.81,181.18,189.81s-185.19-19.23-255.59-59.4
		c-70.4-40.17-83.17-86.15-62.62-122.17C3433.84,2922.48,3479.92,2910.08,3550.32,2950.25z"/>
	<path class="st2" d="M3659.91,2633.07c31.36,50.26,73.42,170.8,73.42,170.8s-89.8-90.75-121.16-141.01
		c-31.36-50.26-33.79-77.94-20.6-86.16C3604.75,2568.48,3628.55,2582.82,3659.91,2633.07z"/>
	<path class="st2" d="M3758.55,2187.97c19.91,116.93-22.34,377.04-22.34,377.04s-125.95-231.48-145.86-348.4
		s9.42-172.22,55.87-180.12C3692.67,2028.57,3738.64,2071.04,3758.55,2187.97z"/>
	<rect x="2189.99" y="3130.09" class="st5" width="948.01" height="207.32"/>
	<rect x="1869.99" y="2923.09" class="st5" width="957.01" height="207.32"/>
	<rect x="1552" y="2716.09" class="st5" width="1112" height="207.32"/>
	<path class="st7" d="M1218.92,3438.47c-151.73,41.17-497.95,27.22-497.95,27.22s291.67-187.06,443.4-228.23
		s227.36-13.39,242.43,42.12S1370.65,3397.3,1218.92,3438.47z"/>
	<path class="st2" d="M555.25,3043.92c83.79,113.92,162.73,424.88,162.73,424.88s-273.32-168-357.11-281.92
		s-75.3-193.55-21.62-233.02C392.92,2914.38,471.46,2929.99,555.25,3043.92z"/>
	<path class="st2" d="M1192.44,2710.28c-126.47,108.06-474.47,239.08-474.47,239.08s183.72-323.28,310.19-431.34
		c126.47-108.06,216.11-110.19,261.48-57.1C1335.01,2514.01,1318.91,2602.22,1192.44,2710.28z"/>
	<rect x="1259.05" y="3963.41" class="st5" width="927.01" height="207.32"/>
	<path class="st2" d="M1192.44,3229.72c-126.47,108.06-474.47,239.08-474.47,239.08s183.72-323.28,310.19-431.34
		s216.11-110.19,261.48-57.1S1318.91,3121.66,1192.44,3229.72z"/>
	<path class="st2" d="M1152.03,4031.31c-144.1-6.43-442.08-130.95-442.08-130.95s307.88-97.5,451.98-91.07
		s202.13,58.82,199.39,120.13C1358.59,3990.72,1296.14,4037.74,1152.03,4031.31z"/>
	<path class="st2" d="M1232.83,3818.39c-153.53,61.2-517.43,86.62-517.43,86.62s281.6-231.87,435.13-293.07
		s236.14-40.57,258.86,16.44C1432.12,3685.39,1386.36,3757.19,1232.83,3818.39z"/>
	<path class="st7" d="M297.63,3641.57c147.24,51.08,420.35,263.44,420.35,263.44s-345.94-2.39-493.19-53.47
		S32.3,3732.1,52.41,3674.12S150.39,3590.49,297.63,3641.57z"/>
	<path class="st7" d="M284.77,3997.02c125.98-57.69,430.63-92.01,430.63-92.01s-225.02,208.21-351.01,265.9
		s-196.47,42.87-218.46-5.15C123.95,4117.75,158.79,4054.7,284.77,3997.02z"/>
	<path class="st6" d="M338.95,3203c134.05,58.48,379.02,265.8,379.02,265.8s-318.6-38.57-452.65-97.05s-173.6-120.71-153.27-167.3
		C132.39,3157.84,204.9,3144.51,338.95,3203z"/>
	<rect x="919.22" y="2094.38" class="st5" width="934" height="207.32"/>
	<rect x="1236" y="1887.06" class="st4" width="934" height="207.32"/>
	<rect x="1552" y="1679.74" class="st5" width="934" height="207.32"/>
	<rect x="1868.12" y="1472.43" class="st5" width="934" height="207.32"/>
	<rect x="2184.24" y="1265.11" class="st5" width="934" height="207.32"/>
	<rect x="953.01" y="4170.73" class="st4" width="927.01" height="207.32"/>
	<rect x="617.98" y="4378.04" class="st5" width="927.01" height="207.32"/>
	<rect x="317.04" y="4585.36" class="st5" width="927.01" height="207.32"/>
	<rect y="4792.68" class="st5" width="927.01" height="207.32"/>
	<rect x="3638.83" y="452.36" class="st1" width="766.53" height="576.06"/>
	<rect x="3889.19" y="413.04" class="st4" width="265.8" height="39.32"/>
	<rect x="3705.81" y="523.01" class="st6" width="632.55" height="434.75"/>
	<rect x="3503.89" y="1028.41" class="st1" width="1036.4" height="236.69"/>
	<rect x="3639.62" y="1081.67" class="st8" width="764.93" height="24.84"/>
	<rect x="3638.83" y="1134.23" class="st9" width="766.53" height="33.59"/>
	<rect x="3613.76" y="1167.83" class="st9" width="822.06" height="33.59"/>
	<rect x="3584.86" y="1201.42" class="st9" width="879.85" height="33.59"/>
	<circle class="st5" cx="4024.79" cy="745.55" r="175.41"/>
	<circle cx="3925.12" cy="724.01" r="16.37"/>
	<circle cx="4124.45" cy="724.01" r="16.37"/>
	<path class="st10" d="M3985.52,787.7c15.7,34.33,61.47,35.23,78.53,0"/>
	<path class="st5" d="M4022.09,408.14c0,0-26.69-11.44-35.58-27.96c-8.9-16.52,1.27-44.48-5.72-73.7
		c-6.99-29.23-47.2-68.93-37.03-101.97c10.98-64.87,78.33-64.5,78.33-64.5s67.35-0.37,78.33,64.5
		c10.17,33.04-30.04,72.74-37.03,101.97s3.18,57.18-5.72,73.7C4048.77,396.7,4022.09,408.14,4022.09,408.14z"/>
	<path class="st9" d="M4022.09,204.33l13.16,23.1c0,0,13.73-36.01,25.17-4.76l-25.17,53.63v131.84c0,0-13.16,0-13.16,0h-13.16V276.3
		l-25.17-53.63c11.44-31.25,25.17,4.76,25.17,4.76S4022.09,204.33,4022.09,204.33z"/>
	<g>
		
			<ellipse transform="matrix(0.9426 -0.3339 0.3339 0.9426 20.9718 1146.9955)" class="st5" cx="3347.45" cy="512.48" rx="70.58" ry="42.42"/>
		<circle cx="3251.15" cy="546.59" r="31.58"/>
		<path class="st11" d="M3275.63,537.92c0,0,47.57,59.71,64.66,107.97c17.09,48.26,12.85,69.67-0.11,74.26s-29.74-9.37-46.83-57.64
			C3276.25,614.26,3275.63,537.92,3275.63,537.92z"/>
		<path class="st11" d="M3282.63,557.69c0,0,52.47,23.51,80.99,49.68c28.52,26.17,33.47,41.75,26.69,49.14s-22.73,3.79-51.25-22.38
			C3310.55,607.95,3282.63,557.69,3282.63,557.69z"/>
		<path class="st11" d="M3275.73,537.89c0,0-0.62-76.34-17.71-124.6s-33.87-62.23-46.83-57.64c-12.96,4.59-17.21,26-0.11,74.26
			C3228.16,478.18,3275.73,537.89,3275.73,537.89z"/>
		<path class="st11" d="M3268.73,518.12c0,0,25.98-51.29,31.67-89.58c5.69-38.29-0.27-53.51-10.19-54.99
			c-9.92-1.47-20.05,11.36-25.74,49.65S3268.73,518.12,3268.73,518.12z"/>
		<path class="st12" d="M3345.95,558.02c-17.51-23.66-26.98-49.89-27.93-78.85"/>
		<path class="st12" d="M3372.31,548.68c-17.51-23.66-26.98-49.89-27.93-78.85"/>
		<path class="st12" d="M3398.68,539.34c-17.51-23.66-26.98-49.89-27.93-78.85"/>
	</g>
	<g>
		
			<ellipse transform="matrix(0.4183 -0.9083 0.9083 0.4183 -2768.4863 4944.0708)" class="st5" cx="2475.81" cy="4633.51" rx="70.58" ry="42.42"/>
		<circle cx="2518.54" cy="4540.72" r="31.58"/>
		<path class="st11" d="M2507.67,4564.31c0,0-75.96-7.57-122.47-28.99c-46.51-21.42-58.89-39.39-53.13-51.88s27.46-14.77,73.97,6.65
			S2507.67,4564.31,2507.67,4564.31z"/>
		<path class="st11" d="M2488.63,4555.54c0,0-53.45,21.2-92.09,23.38c-38.65,2.18-53.27-5.14-53.83-15.15
			c-0.56-10.01,13.14-18.93,51.79-21.11C2433.14,4540.49,2488.63,4555.54,2488.63,4555.54z"/>
		<path class="st11" d="M2507.63,4564.4c0,0,55.13,52.8,101.64,74.22s68.21,19.14,73.97,6.65s-6.63-30.47-53.13-51.88
			S2507.63,4564.4,2507.63,4564.4z"/>
		<path class="st11" d="M2526.68,4573.18c0,0,18.63,54.39,42.1,85.18c23.46,30.78,38.53,37.14,46.5,31.06s5.84-22.29-17.62-53.07
			S2526.68,4573.18,2526.68,4573.18z"/>
		<path class="st12" d="M2444.22,4600.67c29.17,3.96,54.57,15.47,75.98,34.99"/>
		<path class="st12" d="M2432.52,4626.08c29.17,3.96,54.57,15.47,75.98,34.99"/>
		<path class="st12" d="M2420.82,4651.49c29.17,3.96,54.57,15.47,75.98,34.99"/>
	</g>
	<path class="st3" d="M4289.18,4491.25c0-93.79-248.57-100.19-555.2-100.19s-555.2,6.4-555.2,100.19s248.57,239.45,555.2,239.45
		S4289.18,4585.04,4289.18,4491.25z"/>
	<ellipse class="st1" cx="3733.99" cy="4491.25" rx="555.2" ry="169.82"/>
	<ellipse class="st3" cx="3699.61" cy="4462.55" rx="203.96" ry="51.83"/>
	<path class="st10" d="M3902.03,4462.36c0-5.31-57.56-223.27-203.2-223.27c-141.98,0-203.2,217.96-203.2,223.27
		s19.53,52.02,203.96,52.02C3885.91,4514.38,3902.03,4467.67,3902.03,4462.36z"/>
	<path class="st4" d="M213.17,1107.65c0,86.18,228.4,220.02,510.15,220.02s510.15-133.84,510.15-220.02"/>
	<ellipse class="st1" cx="723.32" cy="1107.65" rx="510.15" ry="156.04"/>
	<ellipse class="st4" cx="691.73" cy="1081.28" rx="187.41" ry="47.62"/>
	<path class="st10" d="M877.73,1081.11c0-4.88-52.89-205.16-186.71-205.16c-130.46,0-186.71,200.28-186.71,205.16
		s17.95,47.8,187.41,47.8C862.91,1128.9,877.73,1085.98,877.73,1081.11z"/>
	<circle class="st5" cx="2906.65" cy="1062.64" r="20.89"/>
	
		<ellipse transform="matrix(0.9063 -0.4227 0.4227 0.9063 -163.9267 1346.4943)" class="st2" cx="2954.46" cy="1042.91" rx="28.3" ry="17.34"/>
	
		<ellipse transform="matrix(0.4227 -0.9063 0.9063 0.4227 724.7576 3302.4668)" class="st2" cx="2954.46" cy="1082.38" rx="17.34" ry="28.3"/>
	
		<ellipse transform="matrix(0.9063 -0.4227 0.4227 0.9063 -158.9798 1315.4489)" class="st2" cx="2886.92" cy="1016.23" rx="17.34" ry="28.3"/>
	
		<ellipse transform="matrix(0.4227 -0.9063 0.9063 0.4227 768.4984 3238.8408)" class="st2" cx="2926.39" cy="1016.23" rx="28.3" ry="17.34"/>
	
		<ellipse transform="matrix(0.9063 -0.4227 0.4227 0.9063 -194.5146 1340.8291)" class="st2" cx="2926.39" cy="1109.06" rx="17.34" ry="28.3"/>
	
		<ellipse transform="matrix(0.4227 -0.9063 0.9063 0.4227 661.5891 3256.6624)" class="st2" cx="2886.92" cy="1109.06" rx="28.3" ry="17.34"/>
	
		<ellipse transform="matrix(0.9063 -0.4227 0.4227 0.9063 -189.4373 1310.3716)" class="st2" cx="2860.24" cy="1082.38" rx="28.3" ry="17.34"/>
	
		<ellipse transform="matrix(0.4227 -0.9063 0.9063 0.4227 706.1329 3194.2971)" class="st2" cx="2860.24" cy="1042.91" rx="17.34" ry="28.3"/>
	<circle class="st5" cx="3012.34" cy="900.55" r="20.89"/>
	
		<ellipse transform="matrix(0.9063 -0.4227 0.4227 0.9063 -85.5113 1375.9755)" class="st2" cx="3060.15" cy="880.82" rx="28.3" ry="17.34"/>
	
		<ellipse transform="matrix(0.4227 -0.9063 0.9063 0.4227 932.6755 3304.6716)" class="st2" cx="3060.15" cy="920.29" rx="17.34" ry="28.3"/>
	
		<ellipse transform="matrix(0.9063 -0.4227 0.4227 0.9063 -80.5644 1344.9301)" class="st2" cx="2992.61" cy="854.14" rx="17.34" ry="28.3"/>
	
		<ellipse transform="matrix(0.4227 -0.9063 0.9063 0.4227 976.4163 3241.0457)" class="st2" cx="3032.08" cy="854.14" rx="28.3" ry="17.34"/>
	
		<ellipse transform="matrix(0.9063 -0.4227 0.4227 0.9063 -116.0991 1370.3103)" class="st2" cx="3032.08" cy="946.97" rx="17.34" ry="28.3"/>
	
		<ellipse transform="matrix(0.4227 -0.9063 0.9063 0.4227 869.5071 3258.8672)" class="st2" cx="2992.61" cy="946.97" rx="28.3" ry="17.34"/>
	
		<ellipse transform="matrix(0.9063 -0.4227 0.4227 0.9063 -111.0219 1339.8528)" class="st2" cx="2965.93" cy="920.29" rx="28.3" ry="17.34"/>
	
		<ellipse transform="matrix(0.4227 -0.9063 0.9063 0.4227 914.0508 3196.502)" class="st2" cx="2965.93" cy="880.82" rx="17.34" ry="28.3"/>
	<circle class="st5" cx="3202.2" cy="900.55" r="20.89"/>
	
		<ellipse transform="matrix(0.9063 -0.4227 0.4227 0.9063 -67.7183 1456.2238)" class="st2" cx="3250.01" cy="880.82" rx="28.3" ry="17.34"/>
	
		<ellipse transform="matrix(0.4227 -0.9063 0.9063 0.4227 1042.2881 3476.7397)" class="st2" cx="3250.01" cy="920.29" rx="17.34" ry="28.3"/>
	
		<ellipse transform="matrix(0.9063 -0.4227 0.4227 0.9063 -62.7714 1425.1783)" class="st2" cx="3182.47" cy="854.14" rx="17.34" ry="28.3"/>
	
		<ellipse transform="matrix(0.4227 -0.9063 0.9063 0.4227 1086.0288 3413.1135)" class="st2" cx="3221.94" cy="854.14" rx="28.3" ry="17.34"/>
	
		<ellipse transform="matrix(0.9063 -0.4227 0.4227 0.9063 -98.3062 1450.5586)" class="st2" cx="3221.94" cy="946.97" rx="17.34" ry="28.3"/>
	
		<ellipse transform="matrix(0.4227 -0.9063 0.9063 0.4227 979.1196 3430.9353)" class="st2" cx="3182.47" cy="946.97" rx="28.3" ry="17.34"/>
	
		<ellipse transform="matrix(0.9063 -0.4227 0.4227 0.9063 -93.2289 1420.1012)" class="st2" cx="3155.79" cy="920.29" rx="28.3" ry="17.34"/>
	
		<ellipse transform="matrix(0.4227 -0.9063 0.9063 0.4227 1023.6635 3368.5698)" class="st2" cx="3155.79" cy="880.82" rx="17.34" ry="28.3"/>
	<circle class="st5" cx="3107.97" cy="1063.29" r="20.89"/>
	
		<ellipse transform="matrix(0.9063 -0.4227 0.4227 0.9063 -145.3345 1431.6449)" class="st2" cx="3155.77" cy="1043.56" rx="28.3" ry="17.34"/>
	
		<ellipse transform="matrix(0.4227 -0.9063 0.9063 0.4227 840.3951 3485.2905)" class="st2" cx="3155.77" cy="1083.03" rx="17.34" ry="28.3"/>
	
		<ellipse transform="matrix(0.9063 -0.4227 0.4227 0.9063 -140.3877 1400.5995)" class="st2" cx="3088.24" cy="1016.88" rx="17.34" ry="28.3"/>
	
		<ellipse transform="matrix(0.4227 -0.9063 0.9063 0.4227 884.1359 3421.6646)" class="st2" cx="3127.7" cy="1016.88" rx="28.3" ry="17.34"/>
	
		<ellipse transform="matrix(0.9063 -0.4227 0.4227 0.9063 -175.9224 1425.9797)" class="st2" cx="3127.7" cy="1109.7" rx="17.34" ry="28.3"/>
	
		<ellipse transform="matrix(0.4227 -0.9063 0.9063 0.4227 777.2267 3439.4861)" class="st2" cx="3088.24" cy="1109.7" rx="28.3" ry="17.34"/>
	
		<ellipse transform="matrix(0.9063 -0.4227 0.4227 0.9063 -170.8452 1395.5222)" class="st2" cx="3061.56" cy="1083.03" rx="28.3" ry="17.34"/>
	
		<ellipse transform="matrix(0.4227 -0.9063 0.9063 0.4227 821.7704 3377.1208)" class="st2" cx="3061.56" cy="1043.56" rx="17.34" ry="28.3"/>
	<circle class="st5" cx="3309.28" cy="1062.64" r="20.89"/>
	
		<ellipse transform="matrix(0.9063 -0.4227 0.4227 0.9063 -126.1938 1516.6738)" class="st2" cx="3357.09" cy="1042.91" rx="28.3" ry="17.34"/>
	
		<ellipse transform="matrix(0.4227 -0.9063 0.9063 0.4227 957.209 3667.365)" class="st2" cx="3357.09" cy="1082.38" rx="17.34" ry="28.3"/>
	
		<ellipse transform="matrix(0.9063 -0.4227 0.4227 0.9063 -121.2469 1485.6284)" class="st2" cx="3289.55" cy="1016.23" rx="17.34" ry="28.3"/>
	
		<ellipse transform="matrix(0.4227 -0.9063 0.9063 0.4227 1000.9497 3603.7388)" class="st2" cx="3329.02" cy="1016.23" rx="28.3" ry="17.34"/>
	
		<ellipse transform="matrix(0.9063 -0.4227 0.4227 0.9063 -156.7816 1511.0087)" class="st2" cx="3329.02" cy="1109.06" rx="17.34" ry="28.3"/>
	
		<ellipse transform="matrix(0.4227 -0.9063 0.9063 0.4227 894.0405 3621.5605)" class="st2" cx="3289.55" cy="1109.06" rx="28.3" ry="17.34"/>
	
		<ellipse transform="matrix(0.9063 -0.4227 0.4227 0.9063 -151.7044 1480.5513)" class="st2" cx="3262.87" cy="1082.38" rx="28.3" ry="17.34"/>
	
		<ellipse transform="matrix(0.4227 -0.9063 0.9063 0.4227 938.5843 3559.1951)" class="st2" cx="3262.87" cy="1042.91" rx="17.34" ry="28.3"/>
	<line class="st10" x1="3012.34" y1="956.93" x2="3012.34" y2="1265.11"/>
	<line class="st10" x1="3202.2" y1="946.97" x2="3202.2" y2="1265.11"/>
	<line class="st10" x1="3309.28" y1="1111.02" x2="3309.28" y2="1265.11"/>
	<line class="st10" x1="3107.97" y1="1114.53" x2="3107.97" y2="1265.11"/>
	<line class="st10" x1="2906.65" y1="1111.02" x2="2906.65" y2="1265.11"/>
	<path class="st4" d="M4626.62,1761.39l-63.83,84.55c-35.25,0-63.83-37.85-63.83-84.55s28.58-84.55,63.83-84.55
		C4598.05,1676.84,4626.62,1714.7,4626.62,1761.39z"/>
	<path class="st4" d="M4626.29,1760.12l-63.15,85.06c9.93,33.83,54.3,50.59,99.11,37.44c44.81-13.15,73.08-51.24,63.15-85.06
		C4715.47,1763.72,4671.1,1746.96,4626.29,1760.12z"/>
	<path class="st5" d="M4605.14,1878.06c-1.58,26.58-16.3,47.34-32.89,46.35c-16.59-0.98-28.76-23.33-27.18-49.92l32.89-46.35
		C4594.54,1829.13,4606.71,1851.48,4605.14,1878.06z"/>
	<path class="st5" d="M4521.84,1819.59c-24.6,10.2-39.38,30.91-33.02,46.26c6.36,15.35,31.47,19.53,56.07,9.33l33.02-46.26
		C4571.54,1813.57,4546.44,1809.39,4521.84,1819.59z"/>
	<line class="st10" x1="4626.62" y1="1755.63" x2="4641.21" y2="1686.84"/>
	<line class="st10" x1="4691.97" y1="1716.04" x2="4626.62" y2="1755.63"/>
	<path class="st5" d="M698.2,1797.2l-34.35,42.08c-18.06-0.69-31.97-20.64-31.06-44.56c0.91-23.92,16.29-42.76,34.35-42.08
		C685.2,1753.33,699.11,1773.28,698.2,1797.2z"/>
	<path class="st5" d="M643.38,1824.98c-12.8,4.75-20.78,15.07-17.82,23.06c2.96,7.99,15.74,10.62,28.54,5.87l17.82-23.06
		C668.97,1822.86,656.19,1820.23,643.38,1824.98z"/>
	<line class="st10" x1="698.31" y1="1794.25" x2="712.56" y2="1758.93"/>
	<path class="st5" d="M4126.21,18.76c8.61,66.04,36.18,125.77,82.21,121.25v0.24c-46.03-4.52-73.59,55.21-82.21,121.25
		c-8.61-66.04-36.18-125.77-82.21-121.25v-0.24C4090.03,144.53,4117.6,84.8,4126.21,18.76z"/>
	<path class="st5" d="M1035.69,3544.41c12.46,95.54,52.34,181.94,118.92,175.41v0.35c-66.58-6.54-106.46,79.87-118.92,175.41
		c-12.46-95.54-52.34-181.94-118.92-175.41v-0.35C983.35,3726.35,1023.23,3639.95,1035.69,3544.41z"/>
	<path class="st5" d="M3415.77,1955.35c13.67,104.83,57.43,199.63,130.49,192.46v0.38c-73.06-7.17-116.81,87.63-130.49,192.46
		c-13.67-104.83-57.43-199.63-130.49-192.46v-0.38C3358.34,2154.98,3402.1,2060.18,3415.77,1955.35z"/>
	<path class="st10" d="M4223.84,137.5"/>
	<path class="st2" d="M1067.3,420.7l73.59,47.42c27.35-10.04,38.74-47.54,25.45-83.77s-46.24-57.46-73.59-47.42
		C1065.4,346.97,1054,384.48,1067.3,420.7z"/>
	<path class="st6" d="M1165.16,436.02c21.99,0.91,39.35,12.77,38.79,26.49s-18.85,24.11-40.84,23.2l-38.79-26.49
		C1124.88,445.5,1143.17,435.11,1165.16,436.02z"/>
	<line class="st10" x1="1065.66" y1="416.23" x2="1026.24" y2="369.18"/>
	<line class="st10" x1="3711.61" y1="1134.23" x2="3711.61" y2="1167.83"/>
	<line class="st10" x1="3777.68" y1="1134.23" x2="3777.68" y2="1167.83"/>
	<rect x="3837.91" y="1141.85" class="st13" width="58.29" height="18.19"/>
	<rect x="3912.54" y="1175.53" class="st13" width="58.29" height="18.19"/>
	<rect x="4244.35" y="1175.53" class="st13" width="58.29" height="18.19"/>
	<rect x="3682.47" y="1175.53" class="st13" width="58.29" height="18.19"/>
	<rect x="3592.59" y="1209.36" class="st13" width="49.31" height="18.19"/>
	<rect x="4154.99" y="1209.36" class="st13" width="49.31" height="18.19"/>
	<rect x="3965.97" y="1175.53" class="st13" width="58.29" height="18.19"/>
	<line class="st10" x1="3837.91" y1="1134.23" x2="3837.91" y2="1161.35"/>
	<line class="st10" x1="3896.2" y1="1134.23" x2="3896.2" y2="1161.35"/>
	<line class="st10" x1="3952.78" y1="1134.23" x2="3952.78" y2="1161.35"/>
	<line class="st10" x1="4003.07" y1="1134.23" x2="4003.07" y2="1161.35"/>
	<line class="st10" x1="4054.79" y1="1134.23" x2="4054.79" y2="1161.35"/>
	<line class="st10" x1="4105.08" y1="1134.23" x2="4105.08" y2="1161.35"/>
	<line class="st10" x1="4154.99" y1="1134.23" x2="4154.99" y2="1167.83"/>
	<line class="st10" x1="4210" y1="1134.23" x2="4210" y2="1167.83"/>
	<line class="st10" x1="4276.06" y1="1134.23" x2="4276.06" y2="1161.35"/>
	<line class="st10" x1="4343.1" y1="1134.23" x2="4343.1" y2="1161.35"/>
	<line class="st10" x1="3677.81" y1="1167.83" x2="3677.81" y2="1201.42"/>
	<line class="st10" x1="3743.87" y1="1167.83" x2="3743.87" y2="1201.42"/>
	<line class="st10" x1="3804.1" y1="1167.83" x2="3804.1" y2="1194.94"/>
	<line class="st10" x1="3862.39" y1="1169.83" x2="3862.39" y2="1196.94"/>
	<line class="st10" x1="3918.97" y1="1167.83" x2="3918.97" y2="1194.94"/>
	<line class="st10" x1="3969.26" y1="1167.83" x2="3969.26" y2="1194.94"/>
	<line class="st10" x1="4020.98" y1="1167.83" x2="4020.98" y2="1194.94"/>
	<line class="st10" x1="4071.27" y1="1167.83" x2="4071.27" y2="1194.94"/>
	<line class="st10" x1="4121.18" y1="1167.83" x2="4121.18" y2="1201.42"/>
	<line class="st10" x1="4176.19" y1="1167.83" x2="4176.19" y2="1201.42"/>
	<line class="st10" x1="4242.26" y1="1167.83" x2="4242.26" y2="1194.94"/>
	<line class="st10" x1="4309.29" y1="1167.83" x2="4309.29" y2="1194.94"/>
	<line class="st10" x1="4374.19" y1="1167.83" x2="4374.19" y2="1194.94"/>
	<line class="st10" x1="3709.04" y1="1204.9" x2="3709.04" y2="1234.49"/>
	<line class="st10" x1="3644.6" y1="1203.67" x2="3644.6" y2="1228.02"/>
	<line class="st10" x1="3775.11" y1="1204.9" x2="3775.11" y2="1234.49"/>
	<line class="st10" x1="3835.34" y1="1201.9" x2="3835.34" y2="1229.02"/>
	<line class="st10" x1="3893.63" y1="1202.9" x2="3893.63" y2="1230.02"/>
	<line class="st10" x1="3950.21" y1="1204.9" x2="3950.21" y2="1232.02"/>
	<line class="st10" x1="4000.5" y1="1202.9" x2="4000.5" y2="1230.02"/>
	<line class="st10" x1="4052.22" y1="1202.9" x2="4052.22" y2="1230.02"/>
	<line class="st10" x1="4102.51" y1="1202.9" x2="4102.51" y2="1228.82"/>
	<line class="st10" x1="4152.42" y1="1202.9" x2="4152.42" y2="1235.02"/>
	<line class="st10" x1="4207.43" y1="1202.9" x2="4207.43" y2="1235.02"/>
	<line class="st10" x1="4273.49" y1="1202.9" x2="4273.49" y2="1228.82"/>
	<line class="st10" x1="4340.53" y1="1201.9" x2="4340.53" y2="1229.02"/>
	<line class="st10" x1="4405.35" y1="1201.9" x2="4405.35" y2="1229.02"/>
</g>
<g id="Слой_3">
	<polygon class="st9" points="1030.34,4155.7 989.21,4154.62 949.15,4056.67 896.1,4081 979.2,4274.39 931.83,4549.78 
		1030.34,4549.78 1030.34,4333.25 1030.34,4549.78 1128.86,4549.78 1081.49,4274.39 1164.59,4081 1111.54,4056.67 1071.48,4154.62 	
		"/>
	<g>
		<path class="st14" d="M1164.41,4017.34c1.22-8.33-7.16-12.54-12.7-7.18"/>
		<line class="st14" x1="1177.3" y1="4023.91" x2="1164.19" y2="4049.68"/>
		<path class="st14" d="M1177.3,4023.91c1.22-8.33-7.35-11.92-12.88-6.56"/>
		<line class="st14" x1="1164.41" y1="4017.34" x2="1151.48" y2="4042.77"/>
		<line class="st14" x1="1138.54" y1="4036.07" x2="1151.72" y2="4010.17"/>
		<path class="st14" d="M1151.72,4010.17c1.22-8.33-7.35-11.92-12.88-6.56l-13.35,26.25l-1.94-11.75
			c-1.92-11.64-18.92-7.91-17.15,2.83l4.98,34.73l53.11,25l25.86-50.37c1.22-8.33-7.51-11.74-13.04-6.38"/>
	</g>
	<g>
		<path class="st15" d="M1165.46,4017.52c1.24-8.48-7.29-12.76-12.92-7.3"/>
		<line class="st15" x1="1178.58" y1="4024.2" x2="1165.24" y2="4050.43"/>
		<path class="st15" d="M1178.58,4024.2c1.24-8.48-7.48-12.14-13.11-6.68"/>
		<line class="st15" x1="1165.46" y1="4017.52" x2="1152.3" y2="4043.4"/>
		<line class="st15" x1="1139.13" y1="4036.58" x2="1152.54" y2="4010.22"/>
		<path class="st15" d="M1152.54,4010.22c1.24-8.48-7.48-12.14-13.11-6.68l-13.59,26.72l-1.98-11.96
			c-1.96-11.85-19.26-8.05-17.45,2.88l5.28,36.37l53.85,24.43l26.32-51.27c1.24-8.48-7.64-11.95-13.28-6.5"/>
	</g>
	<g>
		<path class="st14" d="M897.01,4018.65c-1.22-8.33,7.16-12.54,12.7-7.18"/>
		<line class="st14" x1="884.12" y1="4025.21" x2="897.23" y2="4050.98"/>
		<path class="st14" d="M884.12,4025.21c-1.22-8.33,7.35-11.92,12.88-6.56"/>
		<line class="st14" x1="897.01" y1="4018.65" x2="909.94" y2="4044.07"/>
		<line class="st14" x1="922.88" y1="4037.37" x2="909.7" y2="4011.47"/>
		<path class="st14" d="M909.7,4011.47c-1.22-8.33,7.35-11.92,12.88-6.56l13.35,26.25l1.94-11.75c1.92-11.64,18.92-7.91,17.15,2.83
			l-4.98,34.73l-53.11,25l-25.86-50.37c-1.22-8.33,7.51-11.74,13.04-6.38"/>
	</g>
	<g>
		<path class="st15" d="M895.96,4018.82c-1.24-8.48,7.29-12.76,12.92-7.3"/>
		<line class="st15" x1="882.84" y1="4025.51" x2="896.18" y2="4051.74"/>
		<path class="st15" d="M882.84,4025.51c-1.24-8.48,7.48-12.14,13.11-6.68"/>
		<line class="st15" x1="895.96" y1="4018.82" x2="909.12" y2="4044.7"/>
		<line class="st15" x1="922.29" y1="4037.89" x2="908.88" y2="4011.52"/>
		<path class="st15" d="M908.88,4011.52c-1.24-8.48,7.48-12.14,13.11-6.68l13.59,26.72l1.98-11.96c1.96-11.85,19.26-8.05,17.45,2.88
			l-5.28,36.37l-53.85,24.43l-26.32-51.27c-1.24-8.48,7.64-11.95,13.28-6.5"/>
	</g>
	<circle class="st14" cx="1030.34" cy="4101.31" r="38.98"/>
	<path d="M1030.34,4045.05c0,0-28.41,0-41.47,19.08c-11.66,17.05-14.41,33.14-7.36,38.83c8.95,7.24,18.41-19.69,30.8-22.3
		c12.39-2.61,6.36,4.56,18.03,4.56c11.67,0,5.65-7.17,18.03-4.56c12.39,2.61,20.7,27.32,30.8,22.3c7.88-3.92,4.3-21.78-7.36-38.83
		C1058.76,4045.05,1030.34,4045.05,1030.34,4045.05z"/>
	<path class="st16" d="M1010.48,4106.13c6.35,16.69,30.85,19.86,40.1,0"/>
	<path class="st6" d="M1030.34,4549.78v33.7h152.67c-13.93-16.86-31.66-28.54-54.15-33.7H1030.34z"/>
	<path class="st6" d="M1030.34,4549.78v33.7H877.67c13.93-16.86,31.66-28.54,54.15-33.7H1030.34z"/>
	<line class="st16" x1="979.2" y1="4274.39" x2="1081.49" y2="4274.39"/>
	<path class="st9" d="M2487.55,887.04l-19.76,37.83v289.27h-115.92l15.81-148.06c0,0-25.03,28.1-48.74,34.36
		c-23.7,6.26-138.31-68.5-138.31-68.5c0.41-52.93,24.07-81.78,61.91-95.93l68.5,52.46l77.72-84.49l30.3-106.52
		c9.83-44.5,77-47.78,91.75-21.08l53.15,86.94l77.72-15.81l-9.22,77.35h-88.07c0,0-29.49,0.1-38.5-10.55
		C2489.85,895.38,2487.55,887.04,2487.55,887.04z"/>
	<line class="st10" x1="2388.75" y1="903.99" x2="2467.79" y2="924.88"/>
	<path class="st6" d="M2351.87,1214.14v49.16l209.32,0c-25.05-31.06-53.97-50-93.4-49.16H2351.87z"/>
	<line class="st10" x1="2367.68" y1="1066.08" x2="2428.27" y2="955.32"/>
	<path class="st6" d="M2244.32,937.1l-34.76-34.76l-148.01,148.01c39.67,4.25,91.79,10.07,119.08-18.4
		C2179.14,983.04,2201.78,952.5,2244.32,937.1z"/>
	<circle class="st17" cx="2500.66" cy="695.83" r="44.2"/>
	<path class="st5" d="M2538.04,672.26c6.08,24.95-34.46,22.58-77.03,43.13c-42.57,20.56-36.42,76.94-112.31,62.89
		c-62.16-11.51-45.15-89.56-3.98-106.56c34.74-14.34,89.66,29.59,114.84,0.88C2495.33,631.83,2535.54,662.01,2538.04,672.26z"/>
	<line class="st10" x1="2487.55" y1="887.04" x2="2446.88" y2="806.05"/>
	<path class="st17" d="M2641.67,847.52l44.43,4.75c18.83,3.19,15.24,24.42-3.59,21.23c17.53,2.97,14.38,21.61-3.16,18.64
		c16.57,2.81,12.94,24.27-3.63,21.46c13.63,2.31,10.25,22.28-3.38,19.97l-39.89-8.7L2641.67,847.52z"/>
	
		<rect x="2722.27" y="854.96" transform="matrix(0.9571 0.2896 -0.2896 0.9571 375.2211 -765.0701)" class="st4" width="100.87" height="60.68"/>
	<polygon class="st2" points="2818.96,846.54 2903.7,822.22 2807.9,883.11 	"/>
	<path class="st4" d="M2690.65,852.9c3.2-9.83,12.69-5.18,36.84,7.66l5.72-18.91c-30.34-19.42-54.47-16.27-65.93,8.61L2690.65,852.9
		z"/>
	<path class="st9" d="M3674.58,4514.38c0,0-29.79-90.44,36.64-103.57c66.43-13.14,103.87,95.31,103.87,95.31L3674.58,4514.38z"/>
	<circle class="st14" cx="3717.34" cy="4344.04" r="50.92"/>
	<path class="st4" d="M3660.54,4307.08c0,0,43.45,7.17,50.13,30.39s40.72,44.44,40.72,44.44s40.45-37.86,10.92-82.86
		c-21.5-22.07-55.62-13.02-73.96-8.89S3660.54,4307.08,3660.54,4307.08z"/>
	<ellipse class="st5" cx="3727.75" cy="4343.24" rx="17.08" ry="27.33"/>
	<path class="st10" d="M3689.97,4287.26c0-19.45,37.78-19.45,37.78,0v28.65"/>
	<line class="st10" x1="3559.8" y1="4410.72" x2="3605.46" y2="4477.99"/>
	<line class="st10" x1="3535.04" y1="4491.25" x2="3582.63" y2="4444.35"/>
	<circle class="st2" cx="698.54" cy="927.71" r="34.43"/>
	<path class="st18" d="M3649.37,4511.81c0,0-19.41-48.94-25.76-55.28s-44.84,13.24-44.84,13.24c-11.97,2.46-8.12,21.22,3.85,18.77
		l18.98-3.08l-18.98,3.08l-5.21,16.25L3649.37,4511.81z"/>
	<path class="st9" d="M708.62,1128.9c0,0,29.79-90.44-36.64-103.57c-66.43-13.14-103.87,91.74-103.87,91.74L708.62,1128.9z"/>
	<circle class="st17" cx="682.16" cy="965.2" r="40.46"/>
	<line class="st10" x1="823.4" y1="1025.24" x2="777.74" y2="1092.51"/>
	<line class="st10" x1="848.16" y1="1105.77" x2="800.57" y2="1058.88"/>
	<path class="st10" d="M733.83,1126.33c0,0,19.41-48.94,25.76-55.28c6.34-6.34,44.84,13.24,44.84,13.24
		c11.97,2.46,8.12,21.22-3.85,18.77l-18.98-3.08l18.98,3.08l5.21,16.25L733.83,1126.33z"/>
	<circle class="st2" cx="647.72" cy="940.77" r="34.43"/>
	<path class="st9" d="M3394.52,3711.09l-104.02-414.22c-2.52-16.89-47.3-23.26-54.96-8.86l-32.47,35.81l-34.44-20.06l-30.63,49.2
		l90.64,39.36l-1.97,22.63l-80.68-26.57c-16.78-4.66-28.88,0.01-35.42,15.74l-18.69,87.57l72.81,17.71l3.94-53.13l93.47,32.47
		l29.04,222.36H3394.52z"/>
	<circle class="st17" cx="3259.29" cy="3212.43" r="49.07"/>
	<path class="st3" d="M3300.16,3239.58c15-22.57,8.85-53.03-13.72-68.02c-22.57-15-53.03-8.86-68.02,13.72L3300.16,3239.58z"/>
	<line class="st10" x1="3218.42" y1="3185.28" x2="3177.95" y2="3157.43"/>
	<circle class="st14" cx="2116.24" cy="2364.65" r="49.07"/>
	<path class="st3" d="M2165.31,2364.8c0.08-27.1-21.82-49.13-48.91-49.22c-27.1-0.08-49.13,21.82-49.22,48.91L2165.31,2364.8z"/>
	<line class="st10" x1="2067.17" y1="2364.5" x2="2018.06" y2="2363.55"/>
	<line class="st10" x1="3262.1" y1="3488.73" x2="3259.29" y2="3456"/>
	<path class="st10" d="M3275.43,3330.2c-14.25,26.78-24.88,70-46.78,62.11"/>
	<path class="st6" d="M3394.52,3756.09v-45h-103.38c-33.72-0.53-59,18.36-80.91,45H3394.52z"/>
	<path class="st6" d="M3164.64,3544.41l0.05-35.02l-72.81-17.71c-33.72-0.53-85.48,26.08-107.39,52.73H3164.64z"/>
	<g>
		<path class="st19" d="M3098.72,3301.16c-5.97-5.93-1.79-14.32,5.86-13.36"/>
		<line class="st19" x1="3092.35" y1="3314.13" x2="3118.29" y2="3326.9"/>
		<path class="st19" d="M3092.35,3314.13c-5.97-5.93-1.27-13.95,6.37-12.98"/>
		<line class="st19" x1="3098.72" y1="3301.16" x2="3124.31" y2="3313.75"/>
		<line class="st19" x1="3130.65" y1="3300.63" x2="3104.58" y2="3287.8"/>
		<path class="st19" d="M3104.58,3287.8c-5.97-5.93-1.27-13.95,6.37-12.98l26.42,13l-5.49-10.57c-5.44-10.47,10.4-17.67,15.42-8.02
			l16.84,30.78l-27.51,51.85l-50.89-24.8c-5.97-5.93-1.03-13.9,6.61-12.93"/>
	</g>
	<g>
		<path class="st15" d="M3097.99,3301.93c-6.08-6.04-1.82-14.58,5.96-13.6"/>
		<line class="st15" x1="3091.5" y1="3315.14" x2="3117.9" y2="3328.13"/>
		<path class="st15" d="M3091.5,3315.14c-6.08-6.04-1.29-14.2,6.49-13.21"/>
		<line class="st15" x1="3097.99" y1="3301.93" x2="3124.04" y2="3314.75"/>
		<line class="st15" x1="3130.49" y1="3301.39" x2="3103.95" y2="3288.33"/>
		<path class="st15" d="M3103.95,3288.33c-6.08-6.04-1.29-14.2,6.49-13.21l26.89,13.23l-5.59-10.76
			c-5.54-10.66,10.59-17.99,15.7-8.16l17.59,32.27l-28.44,51.84l-51.81-25.25c-6.08-6.04-1.05-14.15,6.73-13.16"/>
	</g>
	<path class="st10" d="M3227.07,3410.38c25.74,20.53,59.46,26.39,97.86,23.61"/>
	<path class="st9" d="M1741.13,2716.09h87.09l29.81-42.2l-33.74-170.26c-3.98-11.15-9.6-19.63-20.4-19.61h-60.41h0.15h-60.41
		c-10.8-0.01-16.42,8.46-20.4,19.61l-33.74,170.26l29.81,42.2h87.09"/>
	<path class="st9" d="M1660.36,2837.43c27.73,15.02,55.47,15.02,83.2,0v-184.28c0-31.12-83.2-31.12-83.2,0V2837.43z"/>
	<path class="st9" d="M1743.56,2837.43c27.73,15.02,55.47,15.02,83.2,0v-184.28c0-31.12-83.2-31.12-83.2,0V2837.43z"/>
	<line class="st10" x1="1688.66" y1="2630.91" x2="1696.45" y2="2560.6"/>
	<line class="st10" x1="1804.8" y1="2632.3" x2="1792" y2="2557.67"/>
	<path class="st6" d="M1738.68,2839.92c0,40.8-5.61,143.04-35.75,143.04c-26.67,0-42.58-104.72-42.58-145.52
		c0,0,21.86,11.27,41.6,11.27S1738.68,2839.92,1738.68,2839.92z"/>
	<path class="st6" d="M1826.77,2839.92c0,40.8-5.61,143.04-35.74,143.04c-26.67,0-42.58-104.72-42.58-145.52
		c0,0,21.86,11.27,41.6,11.27S1826.77,2839.92,1826.77,2839.92z"/>
	<path class="st9" d="M2212.5,2711.53c15.02-27.73,15.02-55.47,0-83.2h-184.28c-31.12,0-31.12,83.2,0,83.2H2212.5z"/>
	<path class="st6" d="M2214.98,2628.32c40.8,0,143.04,5.61,143.04,35.74c0,26.67-104.72,42.58-145.52,42.58
		c0,0,11.27-21.86,11.27-41.6S2214.98,2628.32,2214.98,2628.32z"/>
	<path class="st6" d="M2240.22,2749.94c0,40.8-5.61,143.04-35.75,143.04c-26.67,0-42.58-104.72-42.58-145.52
		c0,0,21.86,11.27,41.6,11.27S2240.22,2749.94,2240.22,2749.94z"/>
	<path class="st17" d="M1629.09,2673.89h-64.1h-26.96c-24.59,0-24.59,42.52,0,42.52h120.88L1629.09,2673.89z"/>
	<path class="st10" d="M1563.85,2716.41c-15.8,0-15.8-42.52,0-42.52"/>
	<path class="st14" d="M1939.45,2673.89h65.43c0.95,13.53,4.69,26.26,13.18,37.63h-78.6V2673.89z"/>
	<path class="st17" d="M1857.98,2673.89h64.1h26.96c24.59,0,24.59,42.52,0,42.52h-120.88L1857.98,2673.89z"/>
	<path class="st10" d="M1923.21,2716.41c15.8,0,15.8-42.52,0-42.52"/>
	<circle class="st17" cx="1743.56" cy="2415.29" r="45.24"/>
	<path class="st4" d="M1743.56,2411.77c8.77,0,16.58-4.08,21.66-10.44c3.13,11.86,13.93,20.61,26.78,20.61
		c15.3,0,27.7-12.4,27.7-27.7c0-8.2-3.56-15.56-9.22-20.63c3.77-4.73,6.02-10.72,6.02-17.23c0-15.3-12.4-27.7-27.7-27.7
		c-6.77,0-12.98,2.43-17.79,6.47c-1.81-13.55-13.4-24.01-27.45-24.01h0c-14.05,0-25.64,10.46-27.45,24.01
		c-4.81-4.04-11.02-6.47-17.79-6.47c-15.3,0-27.7,12.4-27.7,27.7c0,6.52,2.26,12.5,6.02,17.23c-5.66,5.07-9.22,12.44-9.22,20.63
		c0,15.3,12.4,27.7,27.7,27.7c12.85,0,23.65-8.75,26.78-20.61C1726.98,2407.69,1734.79,2411.77,1743.56,2411.77L1743.56,2411.77z"/>
	<path class="st10" d="M1724.13,2429.9c12.96,13.39,25.91,13.39,38.87,0"/>
	<path class="st9" d="M2026.43,2623.76l28.27-153.45c3.72-40.45,136.84-53.69,153.45-35.39l63.6,123.22
		c5.96,21.54-0.95,36.75-28.27,41.92l-0.28,23.7H2026.43z"/>
	<line class="st10" x1="2077.23" y1="2623.76" x2="2089.89" y2="2525.3"/>
	<path class="st9" d="M2157.02,2747.45c27.74,15.02,55.47,15.02,83.2,0v-184.28c0-31.12-83.2-31.12-83.2,0V2747.45z"/>
	<line class="st10" x1="2186.42" y1="2487.79" x2="2212.5" y2="2539.84"/>
	<path class="st2" d="M2157.19,2337.63c0,0,21.65-22.78,46.6-19.3c51.33,7.16,36.87,85.37,42.88,108.52
		c6.02,23.16,30.08,22.4,30.08,22.4s-9.06,27.19-29.33,27.07c-95.71-0.56-40.98-99.72-48.81-117.32
		c-8.36-18.81-35.51-8.91-35.51-8.91L2157.19,2337.63z"/>
	<path class="st9" d="M975.98,1815.23l107.19,183.57c17.77,37.42,20.93,71.12-12.06,95.59h-151.9l-15.59-17.87l-20.1,164.81
		l-39.95-2.61c-9.71-36.2-33.74-58.6-71.31-67.98l46.94-165.24c7.26-21.17,22.59-33.12,46.9-34.84l87.09,20.07l-28.14-87.06
		l-37.52,38.86c-11.7,13.28-23.31,13.98-34.84,1.34l-65.66-65.66l42.88-38.92l29.18,28.21l58.58-52.26
		C936.5,1796.76,956.02,1799.47,975.98,1815.23z"/>
	<circle class="st3" cx="909.33" cy="1678.07" r="41.92"/>
	<path class="st18" d="M804.74,1813.86l25.19,25.42l-42.88,38.92c-11.3,8.2-23.73,9.19-37.76,0l-58.11-32.17
		c-5.33-16.21,0.07-23.96,15.99-23.41l56.41,31.27c-14.15-4.02-14.76-17.48-8.43-23.5l30.92-21.86
		C792.6,1806.75,798.81,1808.62,804.74,1813.86z"/>
	<line class="st10" x1="763.6" y1="1853.88" x2="793.63" y2="1831.79"/>
	<circle class="st14" cx="929.28" cy="1723.72" r="49.26"/>
	
		<ellipse transform="matrix(0.409 -0.9125 0.9125 0.409 -1008.6096 1871.1013)" class="st20" cx="940.26" cy="1714.24" rx="31.6" ry="50.27"/>
	<circle class="st0" cx="929.35" cy="1723.72" r="49.26"/>
	<circle class="st3" cx="971.2" cy="1693.97" r="41.92"/>
	<path class="st10" d="M885.54,1701.08c16.59,29.23,44.46,46.41,83.62,51.55"/>
	<path class="st6" d="M883.53,2241.32v60.45l-26.88-0.07c-1.84-20.98-6.2-41.98-13.07-62.99L883.53,2241.32z"/>
	<line class="st10" x1="925.07" y1="1903.66" x2="960.67" y2="1870.93"/>
	<path class="st10" d="M949.16,1978.2c51.69,1.5,85.28-10.62,100.76-36.37"/>
</g>
</svg>
